<svg viewBox="0 0 24 24" xmlns="http://www.w3.org/2000/svg"><path d="M12.558 2h7.115v9.056c-.073-.025-.142-.046-.21-.073q-3.375-1.331-6.751-2.658a.207.207 0 0 1-.156-.232q.006-2.96 0-5.917V2Zm-1.121 20H4.52a.176.176 0 0 1-.2-.2v-5.9a.21.21 0 0 1 .154-.234q3.421-1.341 6.839-2.691c.036-.015.075-.024.128-.041V22ZM4.326 2h7.107c0 .051.008.1.008.14v.507q0 4.442.011 8.883a.237.237 0 0 1-.178.264q-3.385 1.324-6.767 2.66c-.055.022-.112.04-.182.064V2Zm8.24 7.465 1.184.464q2.89 1.139 5.783 2.274a.2.2 0 0 1 .152.219q-.006 4.7 0 9.393v.175c-.067 0-.117.007-.167.007h-6.779c-.139 0-.181-.034-.181-.177q.006-6.1 0-12.191c0-.05 0-.1.008-.167z"/></svg>
