<svg xmlns="http://www.w3.org/2000/svg" viewBox="0 0 1000 1000"><path d="M500.96 10c-1.2.24-43.35 25.63-93.88 56.76-50.53 30.89-91.49 56.52-91.01 57 .48.24 44.07 27.06 96.99 59.63l96.03 59.15 92.68-56.76c73.29-45.02 91.72-57.48 89.33-59.63C686.09 121.36 503.35 10 500.96 10M272 152.49c-1.67-.47-45.02 24.91-96.51 56.53-51.25 31.61-94.12 58.44-95.08 59.15-1.68 1.68 188 119.27 191.35 118.79 1.2-.24 44.78-26.58 96.99-58.68 80.47-49.1 94.36-58.68 91.01-60.83-11.5-7.66-184.89-114-187.76-114.96m473.49 7.18c-1.21-.47-43.6 24.44-94.13 55.57-74.24 45.5-91.25 57-88.61 59.39 5.27 5.03 172.91 107.29 175.79 107.29 4.31 0 185.13-112.08 183.45-113.76-2.39-2.16-173.63-107.53-176.5-108.49M515.947 302.107c-5.548.629-32.994 16.402-98.328 56.592-52.69 32.09-95.8 58.68-96.28 59.15-.48.48 130.761 81.91 171.241 106.34l8.86 5.272 94.12-57.961c51.73-31.85 94.12-59.15 94.12-60.35 0-1.68-145.13-93.16-172.91-108.97q-.269-.135-.823-.073M52.141 311.27V520.6h.01v209.31l96.99 59.16c53.41 32.57 97.47 59.15 98.19 59.15s1.198-94.12 1.198-209.08l-.24-208.84-86.459-52.69c-47.66-28.98-91.73-55.8-98.19-59.39zm894.99.49c-.48 0-42.631 25.63-94.121 57l-93.16 57-.72 208.84c-.24 114.96.24 208.84.96 208.84.96 0 43.59-25.63 94.6-56.76l93.16-56.76V520.84c0-114.96-.24-209.08-.72-209.08M707.64 457.85c-.24 0-42.39 25.39-93.4 56.52l-92.68 56.52V990l5.51-3.35c2.87-1.92 44.79-27.54 93.4-57L708.359 876V666.93c0-114.96-.238-209.08-.718-209.08M296.43 460v419.11l89.33 54.13c48.86 29.94 89.81 54.84 91.01 55.56.96.48 1.68-93.16 1.68-208.36V571.12l-81.91-50.05c-45.02-27.54-85.98-52.45-91.01-55.56z"/></svg>
