<svg xmlns="http://www.w3.org/2000/svg" viewBox="0 0 1000 1000"><path id="path291" d="M 500.96094 10 C 499.76094 10.24 457.61003 35.629797 407.08008 66.759766 C 356.55013 97.649735 315.59031 123.27977 316.07031 123.75977 C 316.55031 123.99977 360.1406 150.82066 413.06055 183.39062 L 509.08984 242.53906 L 601.76953 185.7793 C 675.05946 140.75934 693.48961 128.30039 691.09961 126.15039 C 686.08961 121.3604 503.35094 10 500.96094 10 z M 272 152.49023 C 270.33 152.02023 226.98018 177.39956 175.49023 209.01953 C 124.24029 240.6295 81.370155 267.45992 80.410156 268.16992 C 78.730158 269.84992 268.40977 387.44094 271.75977 386.96094 C 272.95976 386.72094 316.54005 360.37926 368.75 328.2793 C 449.21992 279.17935 463.10976 269.59922 459.75977 267.44922 C 448.25978 259.78923 274.87 153.45023 272 152.49023 z M 745.49023 159.66992 C 744.28024 159.19992 701.88932 184.11027 651.35938 215.24023 C 577.11945 260.74019 560.11 272.24086 562.75 274.63086 C 568.01999 279.66085 735.65907 381.91992 738.53906 381.91992 C 742.84906 381.91992 923.67023 269.84015 921.99023 268.16016 C 919.60024 266.00016 748.36023 160.62992 745.49023 159.66992 z M 515.94727 302.10742 C 510.39885 302.73573 482.95345 318.50863 417.61914 358.69922 C 364.92919 390.78919 321.81984 417.37961 321.33984 417.84961 C 320.85984 418.32961 452.10012 499.75948 492.58008 524.18945 L 501.43945 529.46094 L 595.56055 471.5 C 647.2905 439.65003 689.67969 412.35039 689.67969 411.15039 C 689.67969 409.47039 544.5495 317.98967 516.76953 302.17969 C 516.58953 302.08969 516.31716 302.06553 515.94727 302.10742 z M 52.140625 311.26953 L 52.140625 520.59961 L 52.150391 520.59961 L 52.150391 729.91016 L 149.14062 789.07031 C 202.55057 821.64028 246.61008 848.2207 247.33008 848.2207 C 248.05008 848.2207 248.5293 754.10051 248.5293 639.14062 L 248.28906 430.30078 L 161.83008 377.60938 C 114.17013 348.6294 70.100619 321.8107 63.640625 318.2207 L 52.140625 311.26953 z M 947.13086 311.75977 C 946.65086 311.75977 904.49971 337.3898 853.00977 368.75977 L 759.84961 425.75977 L 759.13086 634.59961 C 758.89086 749.55949 759.36984 843.43945 760.08984 843.43945 C 761.04984 843.43945 803.6795 817.80966 854.68945 786.67969 L 947.84961 729.91992 L 947.84961 520.83984 C 947.84961 405.87996 947.61086 311.75977 947.13086 311.75977 z M 707.64062 457.84961 C 707.40063 457.84961 665.25018 483.23917 614.24023 514.36914 L 521.56055 570.89062 L 521.56055 780.43945 L 521.56055 990 L 527.07031 986.65039 C 529.94031 984.73039 571.86075 959.11036 620.4707 929.65039 L 708.35938 876 L 708.35938 666.92969 C 708.35938 551.9698 708.12062 457.84961 707.64062 457.84961 z M 296.42969 460 L 296.42969 669.56055 L 296.42969 879.10938 L 385.75977 933.24023 C 434.61972 963.1802 475.56953 988.08078 476.76953 988.80078 C 477.72953 989.28078 478.44922 895.63934 478.44922 780.43945 L 478.44922 571.11914 L 396.53906 521.07031 C 351.51911 493.53034 310.55929 468.61976 305.5293 465.50977 L 296.42969 460 z " /></svg>
