<svg viewBox="0 0 1275 1275" xmlns="http://www.w3.org/2000/svg"><path style="stroke-width:1" d="M 0 318.88086 L 0 956.32031 L 637.59961 956.32031 L 637.59961 318.88086 L 0 318.88086 z M 337.00391 352.5293 C 431.81781 353.1463 528.4734 397.75374 584.90234 496.55664 L 584.88672 496.56836 L 426.52734 587.16211 C 403.32337 549.91615 370.28778 535.66425 339.50781 535.40625 C 283.45387 534.93625 235.11063 579.93785 235.14062 637.3418 C 235.11363 696.39374 283.6093 739.22791 336.65625 740.12891 C 368.36622 740.66391 406.94975 723.00043 426.55273 687.98047 L 584.90234 778.80664 C 527.3374 878.03154 428.65222 922.83383 336.44531 922.67383 C 190.22946 922.43383 52.681266 805.53277 52.697266 637.58594 C 52.692266 470.5191 190.80105 351.5893 337.00391 352.5293 z " /><path d="M683.266 364.444h182.083l182.274 227.862V364.444h181.939l.01 546.312h-181.94l-182.274-227.48v227.48h-182.13z" style="stroke-width:1" /></svg>
