<svg xmlns="http://www.w3.org/2000/svg" viewBox="0 0 393.08801 393.08801"><path d="M 105.63952 48.842337 C 104.34067 48.83438 103.03743 48.843521 101.72928 48.869688 C 92.495266 48.983668 80.170239 50.664701 70.303349 53.199318 C 63.389876 54.961066 58.655743 57.805142 55.230977 63.556746 C 53.504018 66.480373 51.939465 69.557962 52.749705 72.731838 C 53.389534 75.435646 57.244911 76.505681 60.326917 77.02644 C 63.313264 77.51806 70.159418 78.035645 71.969367 75.869057 C 72.797326 74.866858 72.64816 73.984625 72.049501 72.861396 C 71.384321 71.613387 69.778637 70.706297 68.094148 70.402197 C 66.31399 70.068957 62.762344 69.718876 61.930555 69.360936 C 61.385736 69.090436 60.936319 68.848943 60.936319 68.848943 C 60.936319 68.848943 61.215198 68.62005 61.369138 68.45787 C 61.677028 68.13352 63.087254 67.62261 63.873443 67.44396 C 64.975742 67.25709 66.136409 66.878616 67.267857 66.596076 C 75.21711 64.522638 91.031006 64.427098 98.222579 64.840808 C 126.19446 66.358206 152.15208 73.116264 178.41599 84.357973 C 204.10593 95.424842 233.15449 113.99614 249.99428 136.27035 C 256.4142 144.70743 264.33463 158.51476 265.10936 170.04079 C 265.76373 180.58932 262.29175 190.6127 255.68043 197.90244 C 250.66684 203.37909 244.19358 207.47007 237.06345 210.62934 C 220.93115 217.94566 201.44399 219.11767 183.89964 218.37258 C 181.62028 218.30542 172.9272 217.32967 170.92659 217.03381 C 167.4328 216.49215 162.91607 215.5343 162.91607 215.5343 L 162.64736 161.51157 C 162.64736 161.51157 168.0296 161.68768 171.89779 162.0298 C 181.69309 162.81857 201.90736 166.46755 212.01369 170.69626 C 214.15557 171.55784 216.34322 172.95587 216.52566 175.10219 C 216.63334 176.80759 215.27675 178.17158 213.85389 179.4107 C 213.14245 180.03028 212.36475 180.52522 211.49114 180.99083 C 209.64826 181.89294 206.68192 183.39373 206.49884 183.65156 C 205.85391 184.39594 205.84948 185.43994 206.59385 186.08485 C 208.53174 187.61604 214.82073 188.59075 216.52614 188.48311 C 222.2163 188.3349 227.84497 184.61383 230.87443 179.47356 C 233.63336 174.87812 233.95447 171.42147 232.27125 166.30905 C 230.5133 160.75573 224.8079 155.46346 218.77757 152.26738 C 211.39974 148.3472 198.51072 145.36157 191.86841 144.17434 C 186.71925 143.23293 181.12895 142.36622 176.18759 142.11533 C 171.02578 141.90176 162.64448 141.96178 162.64448 141.96178 C 162.64448 141.96178 162.67538 134.65367 162.38969 129.75791 C 162.02165 121.70098 160.02965 105.93604 152.76018 101.31709 C 151.3462 100.46818 149.69879 100.38461 148.81251 101.57813 C 147.40611 103.4495 145.88185 110.51192 145.54861 112.29208 C 144.94042 115.66106 142.794 131.62867 142.79335 134.03284 C 142.76357 136.53266 142.46649 143.34182 142.31254 143.50399 C 142.28341 143.59965 142.15854 143.6659 142.03375 143.7324 C 141.65934 143.93195 137.02982 144.71714 134.00165 145.04909 C 127.60006 145.81687 112.22529 150.64583 107.21677 152.67429 C 100.51931 155.44269 90.622942 160.47698 87.730315 167.22699 C 85.736647 172.05558 86.351034 176.21545 88.907851 180.86223 C 92.100698 186.8527 96.429103 191.51671 101.26527 196.23067 C 102.95357 197.8949 110.72205 204.65195 112.59342 206.05835 C 119.46759 211.28861 126.83237 215.93658 134.59282 219.97334 C 137.22124 221.29674 140.29912 222.86152 140.29912 222.86152 C 140.29912 222.86152 140.80894 229.08008 141.37781 232.70311 C 142.00053 237.17885 143.43028 241.06387 147.56011 242.94922 C 150.05548 244.02301 152.99608 243.97817 155.7664 243.46313 C 158.0958 243.02286 159.65179 242.03345 160.64641 240.14117 C 160.97521 239.40503 161.67494 237.10931 161.81243 236.3149 C 162.07955 234.40995 162.07155 231.68968 162.07155 231.68968 C 165.86055 232.6349 169.5827 233.45516 173.30517 234.27556 C 186.40673 236.90786 200.68601 237.39019 213.08566 236.14983 C 231.44598 234.21646 252.72758 227.84126 266.72307 216.2152 C 270.5007 213.07998 276.82507 205.7031 279.48836 201.07853 C 281.18618 198.25056 282.69248 195.36398 284.0368 192.32378 C 284.33645 191.68331 286.2184 186.19365 286.63083 183.81039 C 286.73092 182.79552 287.9807 174.91773 287.58668 170.72073 C 287.69944 168.97795 286.78968 164.41446 286.86068 163.49525 C 286.76502 163.46611 286.29571 161.2327 285.93842 159.66033 C 285.58113 158.08797 283.54418 152.76335 283.07855 151.88974 C 281.58602 149.23978 280.80068 147.01397 279.69901 144.79669 C 275.24676 135.39098 265.79557 123.52173 258.12763 115.74983 C 253.80714 111.40206 249.33256 107.21658 244.60852 103.16401 C 242.60411 101.50801 229.79161 91.75039 227.53759 90.227422 C 220.61339 85.504597 208.08711 78.239004 200.20185 74.268778 C 189.14338 68.704634 174.05447 62.64422 162.53796 58.926733 C 143.6076 52.865755 125.12236 48.961683 105.63952 48.842337 z M 141.15132 162.07107 C 141.15132 162.07107 140.91636 170.04903 140.74777 178.15159 C 140.38593 193.40835 140.56879 208.93549 140.56879 208.93549 C 140.56879 208.93549 135.23287 206.89173 131.90569 205.45998 C 122.3068 201.28132 109.40223 192.85517 103.02725 187.35884 C 101.53853 186.06901 96.178332 180.67288 95.167893 179.52875 C 93.471365 177.5484 92.091381 175.55983 92.503801 173.17657 C 92.91623 170.79333 97.550144 168.96418 99.871322 168.20779 C 107.55451 165.63514 120.72383 163.58386 127.69938 162.99093 C 133.16085 162.56397 141.15132 162.07107 141.15132 162.07107 z M 362.64864 236.41614 L 348.19431 236.50779 C 345.06224 236.49439 342.00072 237.96617 339.84551 240.23666 C 337.44071 242.64017 336.28688 248.1429 335.58305 251.48276 L 327.74529 288.19176 C 327.04145 291.53161 325.9016 291.49809 325.2453 288.16201 L 316.67145 245.61667 C 315.65785 240.70824 310.6178 236.66383 305.46422 236.76643 L 299.80302 236.81921 C 294.58293 236.79691 289.56564 240.91338 288.49119 245.81292 L 279.64095 288.59051 C 278.9371 291.93035 277.79725 291.89673 277.14096 288.56076 L 268.28065 245.92857 C 267.26705 241.02015 262.22668 236.9756 256.97745 237.04906 L 242.61908 237.16998 C 237.36984 237.24348 234.09141 240.11267 235.19686 243.69009 L 261.70295 328.59989 C 263.15746 333.43357 268.66752 337.30749 273.88762 337.32968 L 285.40099 337.28266 C 288.84917 337.28766 292.29007 334.57249 292.96477 331.32828 L 301.88171 288.67593 C 302.58555 285.33608 303.62943 285.34033 304.28572 288.67641 L 312.25641 331.14258 C 312.91271 334.47863 316.17684 337.1453 319.65416 337.05473 L 331.89545 337.02067 C 337.14471 336.94717 342.51568 333.04331 344.00191 328.16467 L 369.39285 245.1613 C 370.87908 240.28266 367.86874 236.43833 362.64864 236.41614 z M 185.75904 237.82832 C 156.05642 237.87443 132.16221 261.74761 132.42056 291.09674 C 132.67889 320.44587 156.9929 344.26555 186.79118 344.24855 C 216.49382 344.20244 240.388 320.32927 240.12965 290.98014 C 239.87133 261.63101 215.46167 237.78222 185.75904 237.82832 z M 33.296839 239.90317 C 27.760617 239.8892 23.280002 243.96023 23.316088 248.98901 L 24.10927 330.4564 C 24.145356 335.48518 28.678079 339.47934 34.2143 339.4933 L 49.175828 339.45155 C 54.712049 339.46552 59.193144 335.39449 59.157058 330.36571 L 58.726159 291.97389 C 58.71413 290.29763 59.375593 290.18579 60.298607 291.61689 L 88.554207 336.81241 C 89.448078 338.33917 91.723067 339.4504 93.590647 339.49666 L 115.32373 339.53169 C 120.85995 339.54565 125.34057 335.47463 125.30448 330.44585 L 124.5113 248.97893 C 124.47521 243.95015 119.94249 239.95552 114.40627 239.94155 L 99.444741 239.9833 C 95.048199 240.00292 91.349546 242.53509 90.050839 246.11187 C 89.459769 247.70893 89.563285 250.4586 89.575314 252.13486 L 90.068594 289.29109 C 90.080622 290.96735 89.419159 291.07967 88.496146 289.64857 L 63.309146 248.10562 C 60.569248 243.71666 53.927985 240.1249 48.391764 240.11094 L 33.296839 239.90317 z M 169.37717 260.24278 C 170.2419 260.21833 171.23487 260.4986 172.28886 261.1137 L 217.71135 287.70472 C 221.08413 289.67304 221.07047 292.80533 217.73822 294.82177 L 173.02974 321.13496 C 169.69747 323.1514 166.93585 321.57831 166.86615 317.6892 L 166.23995 264.49804 C 166.19205 261.82429 167.47477 260.29659 169.37717 260.24278 z " /></svg>
