<svg xmlns="http://www.w3.org/2000/svg" viewBox="0 0 393.088 393.088"><path d="M105.64 48.842a150 150 0 0 0-3.91.028c-9.235.114-21.56 1.795-31.427 4.33-6.913 1.761-11.647 4.605-15.072 10.357-1.727 2.923-3.292 6.001-2.481 9.175.64 2.704 4.495 3.774 7.577 4.294 2.986.492 9.832 1.01 11.642-1.157.828-1.002.68-1.884.08-3.008-.665-1.248-2.27-2.155-3.955-2.459-1.78-.333-5.332-.683-6.163-1.041-.545-.27-.995-.512-.995-.512s.28-.229.433-.391c.308-.324 1.718-.835 2.504-1.014 1.103-.187 2.263-.565 3.395-.848 7.95-2.073 23.763-2.169 30.955-1.755 27.971 1.517 53.93 8.275 80.193 19.517 25.69 11.067 54.738 29.638 71.578 51.912 6.42 8.437 14.34 22.245 15.115 33.77.655 10.55-2.817 20.573-9.429 27.862-5.013 5.477-11.486 9.568-18.617 12.727-16.132 7.317-35.619 8.489-53.163 7.744-2.28-.068-10.973-1.043-12.973-1.34-3.494-.54-8.01-1.499-8.01-1.499l-.27-54.022s5.383.176 9.25.518c9.796.789 30.01 4.438 40.117 8.666 2.142.862 4.33 2.26 4.512 4.406.107 1.706-1.25 3.07-2.672 4.309-.712.62-1.49 1.114-2.363 1.58-1.843.902-4.81 2.403-4.992 2.66-.645.745-.65 1.789.095 2.434 1.938 1.531 8.227 2.506 9.932 2.398 5.69-.148 11.319-3.87 14.348-9.01 2.76-4.595 3.08-8.052 1.397-13.164-1.758-5.553-7.463-10.846-13.493-14.042-7.378-3.92-20.267-6.905-26.91-8.093-5.149-.941-10.739-1.808-15.68-2.059-5.162-.213-13.544-.153-13.544-.153s.031-7.308-.254-12.204c-.368-8.057-2.36-23.822-9.63-28.44-1.414-.85-3.061-.933-3.947.26-1.407 1.871-2.931 8.934-3.264 10.714-.609 3.37-2.755 19.337-2.756 21.74-.03 2.5-.327 9.31-.48 9.472-.03.096-.154.162-.28.228-.374.2-5.003.985-8.031 1.317-6.402.768-21.777 5.597-26.785 7.625-6.698 2.769-16.594 7.803-19.487 14.553-1.993 4.829-1.379 8.988 1.178 13.635 3.193 5.99 7.521 10.655 12.357 15.369 1.689 1.664 9.457 8.421 11.328 9.827a152.7 152.7 0 0 0 22 13.915c2.628 1.324 5.706 2.889 5.706 2.889s.51 6.218 1.079 9.841c.623 4.476 2.052 8.36 6.182 10.246 2.495 1.074 5.436 1.03 8.206.514 2.33-.44 3.886-1.43 4.88-3.322.33-.736 1.029-3.032 1.166-3.826.268-1.905.26-4.625.26-4.625 3.789.945 7.51 1.765 11.233 2.586 13.102 2.632 27.381 3.114 39.78 1.874 18.361-1.934 39.643-8.309 53.638-19.935 3.778-3.135 10.102-10.512 12.765-15.136a79 79 0 0 0 4.549-8.755c.3-.64 2.181-6.13 2.594-8.514.1-1.014 1.35-8.892.956-13.09.112-1.742-.797-6.306-.726-7.225-.096-.029-.565-2.262-.923-3.835-.357-1.572-2.394-6.897-2.86-7.77-1.492-2.65-2.277-4.876-3.379-7.093-4.452-9.406-13.903-21.275-21.571-29.047a232 232 0 0 0-13.52-12.586c-2.004-1.656-14.816-11.414-17.07-12.937-6.925-4.722-19.45-11.988-27.336-15.958-11.059-5.564-26.148-11.625-37.664-15.342-18.93-6.061-37.416-9.965-56.898-10.085m35.511 113.23s-.235 7.977-.403 16.08c-.362 15.256-.18 30.783-.18 30.783s-5.335-2.043-8.662-3.475c-9.6-4.179-22.504-12.605-28.879-18.101-1.488-1.29-6.849-6.686-7.86-7.83-1.696-1.98-3.076-3.97-2.663-6.352.412-2.384 5.046-4.213 7.367-4.97 7.684-2.572 20.853-4.623 27.828-5.216 5.462-.427 13.452-.92 13.452-.92m221.498 74.344-14.455.092c-3.132-.014-6.193 1.458-8.348 3.729-2.405 2.403-3.56 7.906-4.263 11.246l-7.838 36.709c-.704 3.34-1.843 3.306-2.5-.03l-8.574-42.545c-1.013-4.909-6.053-8.953-11.207-8.85l-5.661.052c-5.22-.022-10.237 4.094-11.312 8.994l-8.85 42.778c-.704 3.34-1.844 3.306-2.5-.03l-8.86-42.632c-1.014-4.909-6.054-8.953-11.304-8.88l-14.358.121c-5.25.073-8.528 2.943-7.422 6.52l26.506 84.91c1.454 4.834 6.965 8.707 12.185 8.73l11.513-.047c3.448.005 6.89-2.71 7.564-5.955l8.917-42.652c.704-3.34 1.747-3.336 2.404 0l7.97 42.467c.657 3.336 3.92 6.002 7.398 5.912l12.241-.034c5.25-.074 10.62-3.978 12.107-8.856l25.39-83.004c1.487-4.878-1.523-8.723-6.743-8.745m-176.89 1.412c-29.703.046-53.597 23.92-53.338 53.269.258 29.349 24.572 53.169 54.37 53.152 29.703-.047 53.597-23.92 53.339-53.269s-24.668-53.198-54.371-53.152m-152.462 2.075c-5.536-.014-10.017 4.057-9.98 9.086l.792 81.467c.036 5.03 4.57 9.023 10.105 9.037l14.962-.041c5.536.014 10.017-4.058 9.981-9.086l-.43-38.392c-.013-1.676.649-1.788 1.572-.357l28.255 45.195c.894 1.527 3.17 2.638 5.037 2.685l21.733.035c5.536.014 10.017-4.057 9.98-9.086l-.793-81.467c-.036-5.029-4.569-9.023-10.105-9.037l-14.961.041c-4.397.02-8.095 2.552-9.394 6.129-.591 1.597-.488 4.347-.476 6.023l.494 37.156c.012 1.676-.65 1.789-1.573.358L63.31 248.106c-2.74-4.39-9.381-7.981-14.917-7.995zm136.08 20.34c.865-.025 1.858.256 2.912.87l45.422 26.592c3.373 1.968 3.36 5.1.027 7.117l-44.708 26.313c-3.333 2.016-6.094.443-6.164-3.446l-.626-53.191c-.048-2.674 1.235-4.201 3.137-4.255"/></svg>
