<svg fill="#FFFFFF" viewBox="0 0 512 512" xmlns="http://www.w3.org/2000/svg"><path d="M 75.5,0 C 46.2,0 35.4,10.8 35.4,40.1 v 353.3 c 0,3.3 0.2,6.4 0.4,9.3 0.7,6.4 0.7,12.7 6.7,19.7 l 6.6,5.2 c 3.2,1.6 5.5,2.8 9.1,4.2 L 236,506.3 c 9.2,4.2 13.1,5.9 19.8,5.7 h 0.1 c 6.7,0.2 10.7,-1.5 19.8,-5.7 l 177.7,-74.5 c 3.8,-1.5 5.9,-2.7 9.2,-4.2 l 6.6,-5.2 c 6,-7 6,-13.2 6.7,-19.7 0.3,-2.8 0.4,-5.9 0.4,-9.2 V 40.1 C 476.3,10.9 465.5,0 436.2,0 Z m 284.9,66.3 h 14.5 c 24.2,0 36,11.8 36,36.3 v 40.1 h -29.3 v -38.5 c 0,-7.8 -3.6,-11.4 -11.2,-11.4 h -5 c -7.8,0 -11.4,3.6 -11.4,11.4 v 124 c 0,7.8 3.6,11.4 11.4,11.4 h 5.6 c 7.5,0 11.1,-3.6 11.1,-11.4 v -44.3 h 29.3 v 45.8 c 0,24.4 -12,36.4 -36.2,36.4 h -14.7 c -24.3,0 -36.3,-12.1 -36.3,-36.4 V 102.8 c -0.1,-24.4 11.9,-36.5 36.2,-36.5 z m -260,1.7 h 66.4 v 27.2 h -36.6 v 55.5 h 35.3 v 27.2 h -35.3 v 59.2 h 37.1 v 27.3 h -66.9 z m 81.4,0 h 46.8 c 24.2,0 36.2,12.1 36.2,36.5 v 52.2 c 0,24.4 -12,36.4 -36.2,36.4 h -16.9 v 71.2 h -29.9 z m 96.6,0 h 29.8 v 196.3 h -29.8 z m -66.7,26.4 v 72.3 H 224 c 7.5,0 11.1,-3.6 11.1,-11.5 v -49.3 c 0,-7.8 -3.6,-11.5 -11.1,-11.5 z M 129.4,311 h 4.4 l 1,0.2 h 1.6 l 0.8,0.3 h 0.8 l 0.8,0.2 0.8,0.2 0.7,0.2 1.5,0.3 0.9,0.2 0.6,0.2 0.7,0.3 0.8,0.2 0.6,0.2 0.8,0.3 0.8,0.3 0.7,0.4 0.7,0.3 0.6,0.4 0.8,0.4 0.7,0.4 0.7,0.3 0.7,0.5 0.7,0.4 0.6,0.5 2,1.5 -0.5,0.7 -0.6,0.6 -0.5,0.6 -0.6,0.7 -0.4,0.6 -0.5,0.6 -0.6,0.6 -0.5,0.7 -0.4,0.6 -0.6,0.7 -0.5,0.6 -0.6,0.7 -0.5,0.6 -0.4,0.7 -0.6,0.6 -0.5,0.7 -0.6,0.6 -0.5,0.6 -0.6,-0.4 -0.7,-0.6 -0.7,-0.4 -1.2,-0.8 -0.7,-0.4 -0.7,-0.4 -0.7,-0.4 -0.6,-0.3 -0.7,-0.3 -1.3,-0.5 -0.8,-0.1 -0.7,-0.2 -0.8,-0.2 -0.8,-0.2 -0.8,-0.1 h -1 l -1,-0.2 h -1.6 l -0.8,0.1 h -0.8 l -0.8,0.3 -0.7,0.2 -0.8,0.3 -0.7,0.1 -0.7,0.3 -0.8,0.3 -1.2,0.8 -0.7,0.4 -0.6,0.5 -0.6,0.4 -0.6,0.5 -0.4,0.6 -0.7,0.6 -0.8,1.2 -0.4,0.7 -0.3,0.7 -0.4,0.6 -0.4,0.7 -0.2,0.7 -0.3,0.7 -0.3,0.8 -0.1,0.8 -0.3,0.5 -0.2,0.8 v 0.8 l -0.1,0.8 v 1.9 l 0.1,0.8 v 0.6 l 0.1,0.8 0.1,0.7 0.3,0.7 0.1,0.9 0.3,0.7 0.2,0.6 0.3,0.8 0.4,0.8 0.3,0.6 0.8,1.3 0.5,0.7 0.4,0.6 0.7,0.5 0.4,0.6 0.6,0.5 1.3,1 0.6,0.3 0.7,0.4 0.8,0.3 0.8,0.3 0.6,0.3 1.7,0.5 0.8,0.1 0.8,0.3 0.8,0.1 h 3.6 l 1,-0.1 h 0.8 l 0.8,-0.3 0.8,-0.1 0.8,-0.2 0.7,-0.2 0.7,-0.3 0.7,-0.3 0.8,-0.3 0.5,-0.3 0.7,-0.4 v -7.4 h -11.8 v -11.9 h 26.6 V 363 l -0.6,0.4 -0.6,0.5 -0.6,0.4 -0.7,0.5 -0.7,0.3 -0.6,0.5 -1.3,0.8 -0.8,0.4 -1.3,0.8 -0.8,0.3 -0.7,0.3 -0.8,0.3 -1.7,0.7 -0.7,0.3 -1.5,0.5 -0.7,0.2 -0.8,0.3 -0.8,0.3 -0.7,0.1 -2.5,0.5 -0.8,0.1 -1.7,0.2 -0.9,0.1 -0.6,0.2 -0.9,0.1 h -4.2 l -0.8,-0.1 h -0.8 l -0.8,-0.2 h -0.7 l -0.8,-0.3 -2.4,-0.5 -0.7,-0.3 -0.7,-0.1 -0.8,-0.3 -1.5,-0.5 -1.5,-0.7 -0.8,-0.3 -0.6,-0.3 -0.8,-0.3 -0.6,-0.5 -0.8,-0.3 -0.5,-0.4 -0.7,-0.4 -1.3,-1 -0.7,-0.4 -0.5,-0.5 -0.7,-0.5 -1.1,-1.1 -0.6,-0.5 -0.5,-0.6 -0.6,-0.6 -0.4,-0.7 -0.5,-0.5 -0.4,-0.7 -0.5,-0.7 -0.4,-0.6 -0.4,-0.7 -0.4,-0.8 -0.3,-0.7 -0.3,-0.7 -0.3,-0.7 -0.7,-1.5 -0.3,-0.6 -0.3,-0.8 -0.2,-0.7 -0.1,-0.7 -0.2,-0.8 -0.3,-0.8 -0.2,-0.8 -0.1,-0.7 -0.1,-0.8 -0.2,-1.5 -0.2,-1.7 V 339 l 0.2,-0.9 v -0.8 l 0.3,-0.8 v -0.8 l 0.2,-0.8 0.3,-0.8 0.3,-1.5 0.2,-0.8 0.3,-0.7 1,-2.3 0.3,-0.7 0.3,-0.7 0.4,-0.8 0.3,-0.7 0.4,-0.6 0.8,-1.3 0.5,-0.7 0.5,-0.6 0.4,-0.7 1.1,-1.1 0.5,-0.6 0.6,-0.6 0.5,-0.6 0.7,-0.5 1.2,-1 0.7,-0.5 0.7,-0.4 0.6,-0.5 0.7,-0.4 0.7,-0.3 0.7,-0.4 0.8,-0.4 0.6,-0.4 0.8,-0.3 0.7,-0.3 0.7,-0.4 0.7,-0.2 0.8,-0.3 0.7,-0.3 0.7,-0.1 0.7,-0.3 0.8,-0.2 0.7,-0.2 0.8,-0.2 h 0.8 l 0.7,-0.2 h 0.8 l 0.8,-0.2 h 0.7 z m 255.8,0.1 h 4.4 l 1,0.2 h 1.6 l 0.8,0.2 h 0.9 l 0.8,0.3 1.5,0.3 0.8,0.2 0.7,0.1 0.9,0.3 0.7,0.3 0.7,0.2 0.7,0.2 0.8,0.3 0.7,0.3 0.8,0.3 0.8,0.3 0.7,0.4 0.6,0.3 0.7,0.4 0.7,0.3 0.7,0.4 0.8,0.5 0.6,0.4 1.3,1 0.7,0.4 -0.5,0.7 -0.4,0.7 -0.5,0.6 -0.5,0.7 -0.4,0.7 -0.4,0.7 -0.5,0.6 -0.5,0.7 -0.4,0.7 -0.5,0.7 -0.4,0.6 -0.5,0.7 -0.4,0.8 -0.5,0.7 -0.5,0.6 -0.5,0.7 -0.4,0.7 -0.7,-0.5 -0.8,-0.4 -0.6,-0.4 -0.7,-0.4 -0.8,-0.3 -0.7,-0.4 -0.7,-0.3 -0.6,-0.3 -0.8,-0.3 -0.6,-0.3 -0.7,-0.3 -1.5,-0.5 -1.7,-0.5 -2.5,-0.5 -0.8,-0.1 -1.5,-0.2 h -1.7 l -0.9,0.2 -0.8,0.2 -0.8,0.2 -0.7,0.3 -0.6,0.3 -0.7,0.6 -0.5,0.7 -0.3,0.8 v 2 l 0.4,0.9 0.3,0.5 0.5,0.5 0.8,0.4 0.7,0.4 0.8,0.3 0.8,0.3 1.1,0.3 0.6,0.3 0.7,0.2 0.8,0.2 0.7,0.2 0.7,0.2 0.9,0.3 0.8,0.3 0.9,0.2 0.9,0.2 0.7,0.3 0.9,0.2 0.8,0.2 0.7,0.2 2.5,0.7 0.7,0.3 0.8,0.3 0.8,0.3 0.8,0.4 1.7,0.7 0.7,0.4 1.3,0.8 1.2,0.9 0.8,0.5 0.6,0.6 0.6,0.7 0.6,0.6 0.4,0.6 0.6,0.8 0.4,0.6 0.3,0.8 0.3,0.5 0.3,0.8 0.3,0.7 0.2,0.7 0.3,1.7 0.1,0.8 0.1,0.8 v 2 l -0.1,0.9 -0.2,1.7 -0.2,0.8 -0.2,0.7 -0.2,0.8 -0.3,0.8 -0.2,0.7 -0.3,0.6 -0.3,0.7 -0.4,0.7 -0.5,0.6 -0.8,1.3 -1,1.2 -0.6,0.4 -0.7,0.6 -0.5,0.5 -0.7,0.5 -0.7,0.3 -0.7,0.5 -0.8,0.4 -1.5,0.8 -0.8,0.3 -0.8,0.3 -0.8,0.3 -0.7,0.3 -0.7,0.2 -1.7,0.3 -0.6,0.2 -0.8,0.2 h -0.8 l -0.7,0.2 h -0.8 l -0.8,0.2 h -5.9 l -2.5,-0.3 -0.8,-0.2 -0.7,-0.1 -1.7,-0.3 -0.9,-0.2 -0.7,-0.2 -0.8,-0.3 -0.9,-0.2 -0.7,-0.2 -0.8,-0.3 -0.8,-0.3 -0.7,-0.2 -0.8,-0.3 -0.8,-0.3 -0.6,-0.3 -0.8,-0.3 -0.7,-0.4 -0.8,-0.3 -0.7,-0.4 -0.6,-0.4 -0.8,-0.4 -0.6,-0.3 -0.7,-0.5 -0.7,-0.4 -0.7,-0.5 -0.6,-0.5 -0.7,-0.5 -0.6,-0.4 -0.7,-0.6 0.5,-0.7 0.6,-0.6 0.5,-0.6 0.6,-0.7 0.4,-0.6 0.5,-0.7 0.6,-0.6 0.5,-0.6 0.6,-0.7 0.4,-0.6 0.6,-0.6 0.5,-0.7 0.5,-0.6 0.6,-0.7 0.4,-0.6 0.6,-0.6 0.6,-0.7 0.6,0.5 0.8,0.5 0.6,0.5 0.8,0.4 0.6,0.4 0.7,0.5 0.7,0.4 0.7,0.3 0.6,0.4 0.7,0.2 0.8,0.3 0.7,0.3 0.7,0.2 0.7,0.3 0.8,0.3 0.7,0.2 0.8,0.3 0.8,0.1 0.8,0.3 0.8,0.1 h 0.9 l 0.8,0.2 h 4.5 l 0.7,-0.1 0.8,-0.2 0.6,-0.1 0.7,-0.3 0.6,-0.3 0.8,-0.5 0.4,-0.6 0.3,-0.7 0.3,-0.8 v -1.9 l -0.3,-0.7 -0.4,-0.7 -0.5,-0.5 -0.7,-0.5 -0.6,-0.2 -0.7,-0.3 -0.8,-0.3 -0.9,-0.4 -0.6,-0.2 -0.7,-0.2 -0.8,-0.3 -0.6,-0.1 -0.8,-0.3 -0.8,-0.1 -0.9,-0.3 -0.8,-0.1 -0.9,-0.2 -0.7,-0.2 -0.8,-0.3 -0.8,-0.2 -0.8,-0.2 -0.7,-0.3 -0.8,-0.2 -0.7,-0.3 -1.5,-0.5 -0.8,-0.3 -0.8,-0.2 -1.7,-0.7 -0.8,-0.4 -0.8,-0.4 -0.6,-0.4 -0.8,-0.4 -0.6,-0.4 -0.7,-0.4 -1.1,-1.1 -0.6,-0.5 -1,-1.2 -0.4,-0.6 -0.3,-0.6 -0.5,-0.8 -0.2,-0.6 -0.8,-2 -0.1,-0.8 -0.2,-0.7 v -0.7 l -0.2,-0.8 v -3.4 l 0.2,-1.7 0.2,-0.7 0.1,-0.7 0.3,-0.7 0.2,-0.8 0.3,-0.6 0.3,-0.8 0.3,-0.7 0.3,-0.8 0.4,-0.6 0.6,-0.7 0.4,-0.7 0.7,-0.6 0.5,-0.6 0.5,-0.7 0.7,-0.6 0.5,-0.4 0.7,-0.5 1.3,-0.8 0.8,-0.4 1.5,-0.7 0.7,-0.2 0.7,-0.3 0.8,-0.3 0.8,-0.2 0.6,-0.2 0.8,-0.2 0.6,-0.2 0.8,-0.2 0.8,-0.2 1.7,-0.1 0.8,-0.1 z m -197.1,0.6 h 15.1 l 0.7,1.5 0.3,0.7 0.3,0.8 0.3,0.7 0.2,0.7 0.4,0.7 0.5,1.5 0.4,0.7 0.7,1.5 0.2,0.7 1.3,3 0.3,0.7 0.3,0.7 0.4,0.7 0.2,0.7 0.4,0.8 0.1,0.7 0.8,1.5 0.3,0.6 0.3,0.8 0.3,0.8 0.2,0.6 0.4,0.8 0.3,0.7 0.3,0.8 0.3,0.6 0.3,0.8 0.8,1.5 0.2,0.7 0.2,0.8 0.3,0.8 0.4,0.7 0.3,0.8 0.3,0.7 0.2,0.7 0.7,1.5 0.2,0.7 0.3,0.8 0.3,0.7 0.3,0.7 0.4,0.8 0.3,0.7 0.3,0.7 0.2,0.8 0.7,1.5 0.3,0.7 0.2,0.8 0.7,1.5 0.4,0.8 0.2,0.6 0.4,0.9 0.1,0.6 0.3,0.8 0.4,0.8 0.3,0.6 0.3,0.8 0.3,0.7 0.2,0.8 0.4,0.6 0.5,1.7 0.3,0.6 0.3,0.8 0.4,0.6 0.3,0.8 0.1,0.7 0.3,0.7 0.3,0.7 0.4,0.7 h -16.7 l -0.4,-0.7 -0.3,-0.7 -0.3,-0.7 -0.3,-0.8 -0.2,-0.7 -0.7,-1.5 -0.2,-0.7 -0.7,-1.5 -0.3,-0.6 -0.3,-0.8 -0.5,-1.5 -0.3,-0.7 h -23.2 l -0.3,0.8 -0.3,0.7 -0.3,0.8 -0.3,0.8 -0.2,0.7 -0.3,0.8 -0.3,0.7 -0.2,0.7 -0.3,0.7 -0.3,0.8 -0.3,0.6 -0.3,0.8 -0.2,0.8 -0.3,0.6 -0.3,0.8 H 163 l 0.2,-0.8 0.7,-1.5 0.2,-0.8 0.3,-0.7 0.4,-0.8 0.3,-0.7 0.3,-0.7 0.2,-0.7 0.3,-0.8 0.4,-0.7 0.3,-0.7 0.5,-1.5 0.7,-1.5 0.3,-0.7 0.3,-0.7 0.2,-0.8 1,-2.2 0.3,-0.8 0.2,-0.7 0.3,-0.7 0.4,-0.7 0.3,-0.8 0.3,-0.7 0.3,-0.7 0.3,-0.8 0.4,-0.6 0.3,-0.8 0.3,-0.6 0.3,-0.8 0.3,-0.8 0.4,-0.7 0.3,-0.8 0.3,-0.6 0.3,-0.8 0.3,-0.8 0.3,-0.6 0.3,-0.8 0.3,-0.7 0.3,-0.8 0.3,-0.6 0.4,-0.8 0.3,-0.8 0.3,-0.7 0.2,-0.7 0.3,-0.8 0.4,-0.7 0.3,-0.7 0.2,-0.8 0.3,-0.8 0.3,-0.7 0.7,-1.5 0.2,-0.7 0.7,-1.7 0.3,-0.6 0.3,-0.8 0.3,-0.7 0.2,-0.8 0.3,-0.7 0.4,-0.7 0.3,-0.8 0.3,-0.6 0.3,-0.8 0.3,-0.7 0.4,-0.7 0.3,-0.8 0.2,-0.7 0.3,-0.8 0.3,-0.6 0.4,-0.8 0.3,-0.8 0.2,-0.6 0.3,-0.8 z m 46.8,0.5 h 16.5 l 0.5,0.7 0.8,1.3 0.4,0.7 0.4,0.6 0.4,0.7 0.4,0.7 0.4,0.8 0.4,0.7 0.4,0.6 0.4,0.8 0.4,0.7 0.6,0.7 0.2,0.7 0.5,0.7 0.4,0.7 0.5,0.6 0.3,0.7 0.4,0.7 0.5,0.7 0.2,0.7 0.6,0.7 1.2,2 0.3,0.7 0.5,0.7 0.4,0.7 0.4,0.8 1.3,2 0.4,0.8 0.4,0.7 0.5,-0.7 0.3,-0.9 0.5,-0.6 0.4,-0.7 0.4,-0.6 0.3,-0.8 0.6,-0.6 0.4,-0.7 0.3,-0.6 0.4,-0.7 0.5,-0.7 0.4,-0.6 0.4,-0.8 0.4,-0.6 0.5,-0.8 0.3,-0.6 0.4,-0.8 0.4,-0.5 0.4,-0.7 0.5,-0.8 0.4,-0.6 0.3,-0.8 0.5,-0.6 0.4,-0.8 0.4,-0.5 0.5,-0.7 0.4,-0.8 0.4,-0.6 0.4,-0.7 0.4,-0.6 0.4,-0.8 0.5,-0.6 0.3,-0.7 0.4,-0.6 h 16.7 v 59.5 h -15.7 v -35 l -0.4,0.6 -0.5,0.8 -0.4,0.5 -0.5,0.7 -0.3,0.8 -0.5,0.6 -0.4,0.6 -0.5,0.8 -0.8,1.2 -0.5,0.7 -0.4,0.8 -0.5,0.6 -0.4,0.6 -0.3,0.8 -0.5,0.6 -0.4,0.6 -0.5,0.8 -0.4,0.6 -0.5,0.7 -0.4,0.8 -0.3,0.6 -0.5,0.7 -0.4,0.8 -0.5,0.6 -0.5,0.7 -0.3,0.7 -0.4,0.8 -0.5,0.6 -0.5,0.7 -0.3,0.8 -0.6,0.5 -0.3,0.7 -0.5,0.9 -0.4,0.6 H 265 l -0.5,-0.8 -0.4,-0.7 -0.4,-0.7 -0.4,-0.6 -0.5,-0.7 -0.4,-0.7 -0.5,-0.7 -0.4,-0.7 -0.4,-0.7 -0.4,-0.6 -0.6,-0.8 -0.3,-0.7 -0.5,-0.7 -0.4,-0.6 -0.4,-0.7 -0.5,-0.7 -0.4,-0.8 -0.5,-0.6 -0.4,-0.7 -0.4,-0.7 -0.4,-0.7 -0.5,-0.6 -0.4,-0.7 -0.5,-0.7 -0.3,-0.7 -0.2,-1.7 -0.4,-0.7 -0.5,-0.6 -0.4,-0.8 -0.5,-0.6 -0.3,-0.8 -0.6,-0.6 -0.3,-0.8 -0.5,-0.7 v 35.1 H 235 v -58.9 z m 74,0 h 46.9 v 13.4 h -31.3 v 9.6 h 28.2 v 12.7 H 324.5 V 358 h 31.7 v 13.5 H 309 v -58.8 z m -113.5,18.2 -0.3,0.7 -0.2,0.7 -0.3,0.8 -0.3,0.7 -0.2,0.7 -0.7,1.5 -0.3,0.8 -0.3,0.7 -0.3,0.8 -0.3,0.6 -0.2,0.8 -0.3,0.8 -0.3,0.6 -0.3,0.8 -0.3,0.7 -0.3,0.8 -0.4,0.7 -0.2,0.7 -0.3,0.8 -0.3,0.8 -0.2,0.7 -0.3,0.8 h 13.7 l -0.3,-0.8 -0.3,-0.7 -0.7,-1.5 -0.3,-0.7 -0.3,-0.7 -0.2,-0.8 -0.3,-0.8 -0.3,-0.7 -0.3,-0.7 -0.3,-0.7 -0.3,-0.8 -0.2,-0.7 -0.7,-1.5 -0.1,-0.8 -0.3,-0.8 -0.6,-0.7 -0.2,-0.6 -0.7,-1.7 -0.2,-0.7 z m -24.5,111.4 h 170.9 l -87.2,28.7 z" id="path2032" /></svg>