<svg xmlns="http://www.w3.org/2000/svg" viewBox="0 0 512 512"><path d="M75.5 0C46.2 0 35.4 10.8 35.4 40.1v353.3c0 3.3.2 6.4.4 9.3.7 6.4.7 12.7 6.7 19.7l6.6 5.2c3.2 1.6 5.5 2.8 9.1 4.2L236 506.3c9.2 4.2 13.1 5.9 19.8 5.7h.1c6.7.2 10.7-1.5 19.8-5.7l177.7-74.5c3.8-1.5 5.9-2.7 9.2-4.2l6.6-5.2c6-7 6-13.2 6.7-19.7.3-2.8.4-5.9.4-9.2V40.1c0-29.2-10.8-40.1-40.1-40.1Zm284.9 66.3h14.5c24.2 0 36 11.8 36 36.3v40.1h-29.3v-38.5c0-7.8-3.6-11.4-11.2-11.4h-5c-7.8 0-11.4 3.6-11.4 11.4v124c0 7.8 3.6 11.4 11.4 11.4h5.6c7.5 0 11.1-3.6 11.1-11.4v-44.3h29.3v45.8c0 24.4-12 36.4-36.2 36.4h-14.7c-24.3 0-36.3-12.1-36.3-36.4V102.8c-.1-24.4 11.9-36.5 36.2-36.5m-260 1.7h66.4v27.2h-36.6v55.5h35.3v27.2h-35.3v59.2h37.1v27.3h-66.9zm81.4 0h46.8c24.2 0 36.2 12.1 36.2 36.5v52.2c0 24.4-12 36.4-36.2 36.4h-16.9v71.2h-29.9zm96.6 0h29.8v196.3h-29.8zm-66.7 26.4v72.3H224c7.5 0 11.1-3.6 11.1-11.5v-49.3c0-7.8-3.6-11.5-11.1-11.5zM129.4 311h4.4l1 .2h1.6l.8.3h.8l.8.2.8.2.7.2 1.5.3.9.2.6.2.7.3.8.2.6.2.8.3.8.3.7.4.7.3.6.4.8.4.7.4.7.3.7.5.7.4.6.5 2 1.5-.5.7-.6.6-.5.6-.6.7-.4.6-.5.6-.6.6-.5.7-.4.6-.6.7-.5.6-.6.7-.5.6-.4.7-.6.6-.5.7-.6.6-.5.6-.6-.4-.7-.6-.7-.4-1.2-.8-.7-.4-.7-.4-.7-.4-.6-.3-.7-.3-1.3-.5-.8-.1-.7-.2-.8-.2-.8-.2-.8-.1h-1l-1-.2h-1.6l-.8.1h-.8l-.8.3-.7.2-.8.3-.7.1-.7.3-.8.3-1.2.8-.7.4-.6.5-.6.4-.6.5-.4.6-.7.6-.8 1.2-.4.7-.3.7-.4.6-.4.7-.2.7-.3.7-.3.8-.1.8-.3.5-.2.8v.8l-.1.8v1.9l.1.8v.6l.1.8.1.7.3.7.1.9.3.7.2.6.3.8.4.8.3.6.8 1.3.5.7.4.6.7.5.4.6.6.5 1.3 1 .6.3.7.4.8.3.8.3.6.3 1.7.5.8.1.8.3.8.1h3.6l1-.1h.8l.8-.3.8-.1.8-.2.7-.2.7-.3.7-.3.8-.3.5-.3.7-.4v-7.4h-11.8v-11.9h26.6V363l-.6.4-.6.5-.6.4-.7.5-.7.3-.6.5-1.3.8-.8.4-1.3.8-.8.3-.7.3-.8.3-1.7.7-.7.3-1.5.5-.7.2-.8.3-.8.3-.7.1-2.5.5-.8.1-1.7.2-.9.1-.6.2-.9.1h-4.2l-.8-.1h-.8l-.8-.2h-.7l-.8-.3-2.4-.5-.7-.3-.7-.1-.8-.3-1.5-.5-1.5-.7-.8-.3-.6-.3-.8-.3-.6-.5-.8-.3-.5-.4-.7-.4-1.3-1-.7-.4-.5-.5-.7-.5-1.1-1.1-.6-.5-.5-.6-.6-.6-.4-.7-.5-.5-.4-.7-.5-.7-.4-.6-.4-.7-.4-.8-.3-.7-.3-.7-.3-.7-.7-1.5-.3-.6-.3-.8-.2-.7-.1-.7-.2-.8-.3-.8-.2-.8-.1-.7-.1-.8-.2-1.5-.2-1.7V339l.2-.9v-.8l.3-.8v-.8l.2-.8.3-.8.3-1.5.2-.8.3-.7 1-2.3.3-.7.3-.7.4-.8.3-.7.4-.6.8-1.3.5-.7.5-.6.4-.7 1.1-1.1.5-.6.6-.6.5-.6.7-.5 1.2-1 .7-.5.7-.4.6-.5.7-.4.7-.3.7-.4.8-.4.6-.4.8-.3.7-.3.7-.4.7-.2.8-.3.7-.3.7-.1.7-.3.8-.2.7-.2.8-.2h.8l.7-.2h.8l.8-.2h.7zm255.8.1h4.4l1 .2h1.6l.8.2h.9l.8.3 1.5.3.8.2.7.1.9.3.7.3.7.2.7.2.8.3.7.3.8.3.8.3.7.4.6.3.7.4.7.3.7.4.8.5.6.4 1.3 1 .7.4-.5.7-.4.7-.5.6-.5.7-.4.7-.4.7-.5.6-.5.7-.4.7-.5.7-.4.6-.5.7-.4.8-.5.7-.5.6-.5.7-.4.7-.7-.5-.8-.4-.6-.4-.7-.4-.8-.3-.7-.4-.7-.3-.6-.3-.8-.3-.6-.3-.7-.3-1.5-.5-1.7-.5-2.5-.5-.8-.1-1.5-.2h-1.7l-.9.2-.8.2-.8.2-.7.3-.6.3-.7.6-.5.7-.3.8v2l.4.9.3.5.5.5.8.4.7.4.8.3.8.3 1.1.3.6.3.7.2.8.2.7.2.7.2.9.3.8.3.9.2.9.2.7.3.9.2.8.2.7.2 2.5.7.7.3.8.3.8.3.8.4 1.7.7.7.4 1.3.8 1.2.9.8.5.6.6.6.7.6.6.4.6.6.8.4.6.3.8.3.5.3.8.3.7.2.7.3 1.7.1.8.1.8v2l-.1.9-.2 1.7-.2.8-.2.7-.2.8-.3.8-.2.7-.3.6-.3.7-.4.7-.5.6-.8 1.3-1 1.2-.6.4-.7.6-.5.5-.7.5-.7.3-.7.5-.8.4-1.5.8-.8.3-.8.3-.8.3-.7.3-.7.2-1.7.3-.6.2-.8.2h-.8l-.7.2h-.8l-.8.2h-5.9l-2.5-.3-.8-.2-.7-.1-1.7-.3-.9-.2-.7-.2-.8-.3-.9-.2-.7-.2-.8-.3-.8-.3-.7-.2-.8-.3-.8-.3-.6-.3-.8-.3-.7-.4-.8-.3-.7-.4-.6-.4-.8-.4-.6-.3-.7-.5-.7-.4-.7-.5-.6-.5-.7-.5-.6-.4-.7-.6.5-.7.6-.6.5-.6.6-.7.4-.6.5-.7.6-.6.5-.6.6-.7.4-.6.6-.6.5-.7.5-.6.6-.7.4-.6.6-.6.6-.7.6.5.8.5.6.5.8.4.6.4.7.5.7.4.7.3.6.4.7.2.8.3.7.3.7.2.7.3.8.3.7.2.8.3.8.1.8.3.8.1h.9l.8.2h4.5l.7-.1.8-.2.6-.1.7-.3.6-.3.8-.5.4-.6.3-.7.3-.8v-1.9l-.3-.7-.4-.7-.5-.5-.7-.5-.6-.2-.7-.3-.8-.3-.9-.4-.6-.2-.7-.2-.8-.3-.6-.1-.8-.3-.8-.1-.9-.3-.8-.1-.9-.2-.7-.2-.8-.3-.8-.2-.8-.2-.7-.3-.8-.2-.7-.3-1.5-.5-.8-.3-.8-.2-1.7-.7-.8-.4-.8-.4-.6-.4-.8-.4-.6-.4-.7-.4-1.1-1.1-.6-.5-1-1.2-.4-.6-.3-.6-.5-.8-.2-.6-.8-2-.1-.8-.2-.7v-.7l-.2-.8v-3.4l.2-1.7.2-.7.1-.7.3-.7.2-.8.3-.6.3-.8.3-.7.3-.8.4-.6.6-.7.4-.7.7-.6.5-.6.5-.7.7-.6.5-.4.7-.5 1.3-.8.8-.4 1.5-.7.7-.2.7-.3.8-.3.8-.2.6-.2.8-.2.6-.2.8-.2.8-.2 1.7-.1.8-.1zm-197.1.6h15.1l.7 1.5.3.7.3.8.3.7.2.7.4.7.5 1.5.4.7.7 1.5.2.7 1.3 3 .3.7.3.7.4.7.2.7.4.8.1.7.8 1.5.3.6.3.8.3.8.2.6.4.8.3.7.3.8.3.6.3.8.8 1.5.2.7.2.8.3.8.4.7.3.8.3.7.2.7.7 1.5.2.7.3.8.3.7.3.7.4.8.3.7.3.7.2.8.7 1.5.3.7.2.8.7 1.5.4.8.2.6.4.9.1.6.3.8.4.8.3.6.3.8.3.7.2.8.4.6.5 1.7.3.6.3.8.4.6.3.8.1.7.3.7.3.7.4.7h-16.7l-.4-.7-.3-.7-.3-.7-.3-.8-.2-.7-.7-1.5-.2-.7-.7-1.5-.3-.6-.3-.8-.5-1.5-.3-.7h-23.2l-.3.8-.3.7-.3.8-.3.8-.2.7-.3.8-.3.7-.2.7-.3.7-.3.8-.3.6-.3.8-.2.8-.3.6-.3.8H163l.2-.8.7-1.5.2-.8.3-.7.4-.8.3-.7.3-.7.2-.7.3-.8.4-.7.3-.7.5-1.5.7-1.5.3-.7.3-.7.2-.8 1-2.2.3-.8.2-.7.3-.7.4-.7.3-.8.3-.7.3-.7.3-.8.4-.6.3-.8.3-.6.3-.8.3-.8.4-.7.3-.8.3-.6.3-.8.3-.8.3-.6.3-.8.3-.7.3-.8.3-.6.4-.8.3-.8.3-.7.2-.7.3-.8.4-.7.3-.7.2-.8.3-.8.3-.7.7-1.5.2-.7.7-1.7.3-.6.3-.8.3-.7.2-.8.3-.7.4-.7.3-.8.3-.6.3-.8.3-.7.4-.7.3-.8.2-.7.3-.8.3-.6.4-.8.3-.8.2-.6.3-.8zm46.8.5h16.5l.5.7.8 1.3.4.7.4.6.4.7.4.7.4.8.4.7.4.6.4.8.4.7.6.7.2.7.5.7.4.7.5.6.3.7.4.7.5.7.2.7.6.7 1.2 2 .3.7.5.7.4.7.4.8 1.3 2 .4.8.4.7.5-.7.3-.9.5-.6.4-.7.4-.6.3-.8.6-.6.4-.7.3-.6.4-.7.5-.7.4-.6.4-.8.4-.6.5-.8.3-.6.4-.8.4-.5.4-.7.5-.8.4-.6.3-.8.5-.6.4-.8.4-.5.5-.7.4-.8.4-.6.4-.7.4-.6.4-.8.5-.6.3-.7.4-.6h16.7v59.5h-15.7v-35l-.4.6-.5.8-.4.5-.5.7-.3.8-.5.6-.4.6-.5.8-.8 1.2-.5.7-.4.8-.5.6-.4.6-.3.8-.5.6-.4.6-.5.8-.4.6-.5.7-.4.8-.3.6-.5.7-.4.8-.5.6-.5.7-.3.7-.4.8-.5.6-.5.7-.3.8-.6.5-.3.7-.5.9-.4.6h-.3l-.5-.8-.4-.7-.4-.7-.4-.6-.5-.7-.4-.7-.5-.7-.4-.7-.4-.7-.4-.6-.6-.8-.3-.7-.5-.7-.4-.6-.4-.7-.5-.7-.4-.8-.5-.6-.4-.7-.4-.7-.4-.7-.5-.6-.4-.7-.5-.7-.3-.7-.2-1.7-.4-.7-.5-.6-.4-.8-.5-.6-.3-.8-.6-.6-.3-.8-.5-.7v35.1H235v-58.9zm74 0h46.9v13.4h-31.3v9.6h28.2v12.7h-28.2V358h31.7v13.5H309v-58.8zm-113.5 18.2-.3.7-.2.7-.3.8-.3.7-.2.7-.7 1.5-.3.8-.3.7-.3.8-.3.6-.2.8-.3.8-.3.6-.3.8-.3.7-.3.8-.4.7-.2.7-.3.8-.3.8-.2.7-.3.8h13.7l-.3-.8-.3-.7-.7-1.5-.3-.7-.3-.7-.2-.8-.3-.8-.3-.7-.3-.7-.3-.7-.3-.8-.2-.7-.7-1.5-.1-.8-.3-.8-.6-.7-.2-.6-.7-1.7-.2-.7zm-24.5 111.4h170.9l-87.2 28.7z"/></svg>
