<svg viewBox="0 0 1072 1072" width="1072" height="1072" xmlns="http://www.w3.org/2000/svg"><path d="m 379.26953,208.28125 c -14.69848,0.92793 -27.92731,5.83642 -39.59961,15.38086 -9.87299,8.07312 -17.05133,17.56431 -20.16601,29.90039 -0.43378,1.71814 -1.04468,4.51829 2.78906,5.125 12.86017,2.03521 25.86029,3.68705 38.43945,6.91602 67.07593,17.21793 122.08832,53.3624 165.58008,107.11328 2.39429,2.95914 4.29217,3.19519 7.52148,1.84765 14.82678,-6.18692 27.11047,-15.55477 36.3379,-28.72851 12.80974,-18.28808 17.46046,-38.79576 14.85156,-60.72461 -1.506,-12.65885 -5.67906,-24.69238 -14.19141,-36.59375 -0.62415,1.35025 -0.87494,2.38738 -1.48242,3.13281 -5.58728,6.85549 -10.72864,14.17076 -16.97461,20.37109 -12.20599,12.11668 -26.59234,14.96624 -42.95508,7.72461 -1.28039,-0.48975 -2.18475,-0.9032 -3.07226,-1.34765 -18.72064,-9.37547 -33.91968,-23.63178 -50.26954,-36.29102 -13.50385,-10.4557 -27.11041,-20.68841 -43.01757,-27.42969 -10.85272,-4.59925 -22.10962,-7.13394 -33.79102,-6.39648 z m 638.03517,88.48828 c -73.99125,7e-4 -147.98362,-0.0491 -221.97462,0.0566 -11.4654,0.0164 -22.99176,0.12063 -34.38086,1.27149 -29.4448,2.97539 -57.8522,10.10235 -85.1582,21.84375 -30.0473,12.92007 -56.88549,30.63027 -80.7129,52.8164 -8.9574,8.34033 -16.81746,17.90491 -24.80078,27.23438 -13.48291,15.75638 -24.2528,33.36379 -34.13281,51.53515 h -0.002 c -5.8619,15.21975 -12.34047,30.24183 -17.6582,45.63672 5.3147,-15.3983 11.76761,-30.44803 17.39453,-45.91797 -7.34356,-11.70914 -14.4228,-23.13629 -21.78907,-34.37304 -7.10565,13.48419 -14.3158,26.59531 -20.5957,40.13867 6.2799,-13.54336 13.48981,-26.65494 20.49219,-40.4668 -13.86542,-20.33783 -30.2558,-37.99606 -48.92774,-53.52734 C 418.11114,323.96707 363.9801,302.52295 303.25195,298 c -24.92487,-1.85637 -49.76733,-0.17969 -74.42187,4.63672 -36.15631,7.06335 -69.6629,20.4563 -100.46875,40.57226 -18.11859,11.83124 -35.011137,25.25373 -49.265627,41.61133 -10.53326,12.08728 -21.109321,24.25473 -30.369141,37.30664 -13.49726,19.0246 -23.892005,39.83029 -31.484374,61.99219 -5.514501,16.09662 -10.6734917,32.26352 -12.8320318,49.21094 -1.48483,11.65836 -3.44381245,23.31342 -3.94531245,35.02344 -0.49429,11.54251 0.18692122,23.18194 1.08203125,34.72265 0.79141,10.20349 2.3638219,20.36505 3.9824219,30.48242 3.91726,24.48566 12.2558591,47.55091 22.8808591,69.86524 13.76449,28.90771 32.234219,54.53052 54.605469,77.29492 7.34497,7.474 15.79858,13.85639 23.726565,20.75977 13.25085,11.53815 28.05011,20.84393 43.4707,29.05078 17.35267,9.23499 35.50214,16.58276 54.48633,22.06445 20.96991,6.05493 42.33484,9.52215 63.9707,10.9375 12.3407,0.80725 24.852,-0.092 37.22852,-1.00586 10.58142,-0.78125 21.17089,-2.19678 31.59765,-4.17383 32.3017,-6.12469 62.57349,-17.75104 90.7793,-34.68945 26.2251,-15.74909 49.59278,-34.94977 69.5,-58.20117 5.89679,-6.88745 11.04975,-14.4115 16.54297,-21.64453 -8.44476,-17.52894 -16.97729,-35.01642 -25.26953,-52.61719 -1.95336,-4.14606 -3.09833,-8.67359 -4.76953,-13.38477 -9.86573,18.05475 -20.48773,35.99597 -35.1875,50.82422 -11.6441,11.74591 -24.64148,22.15234 -37.36719,33.26172 -19.86365,14.75262 -41.53149,25.42939 -64.98633,31.60547 C 259.54761,816.46454 183.58545,796.2143 120.79102,731.32031 87.646843,697.06799 68.572726,655.20044 63.228516,607.7168 c -8.2862,-73.62375 14.496733,-136.62467 67.466794,-188.22071 11.5777,-11.27734 25.74366,-19.89371 38.67774,-29.78711 2.45148,-1.87523 4.36658,-1.75625 7.02929,0.0391 7.99531,5.39084 16.26435,10.37609 24.64258,15.7832 19.64319,10.2203 39.63122,18.73312 60.75586,24.49609 38.12732,10.40145 76.89172,13.47815 116.2461,10.98828 22.64514,-1.43277 44.96539,-4.79326 67.12695,-9.54296 1.65924,-0.35565 4.35394,1.00885 5.62109,2.42187 13.19379,14.71253 23.93616,31.10632 32.97461,49.04297 1.12032,-2.83136 2.23209,-5.7293 3.24024,-8.63672 -0.97885,2.96914 -1.94187,5.94606 -2.98633,8.88477 5.55237,16.2674 12.07452,32.28536 16.34375,48.88281 3.27139,12.71815 3.70402,26.16623 5.41211,39.33398 -0.006,0.14245 -0.0119,0.28526 -0.0176,0.42774 -0.037,5.06183 -0.0393,9.76568 -0.0293,15.0039 1.29606,36.78283 8.74227,71.61885 22.94336,104.70508 -14.20057,-33.07766 -21.6439,-67.85185 -22.92969,-104.17187 -0.58887,31.38007 -8.35601,61.03235 -21.41992,90.09375 1.62549,5.06457 2.7693,9.59222 4.72266,13.73828 8.29224,17.60077 16.82501,35.0877 25.57422,52.46289 7.40106,-11.58832 14.49712,-23.02356 21.63281,-34.79492 -0.10022,-0.62355 -0.18273,-1.12154 -0.30664,-1.55274 0.16127,0.46974 0.2883,0.94653 0.61133,1.78516 2.32556,4.28699 4.37994,8.00897 6.44531,11.72461 10.96972,19.73425 24.21466,37.92633 40.0957,53.84766 11.9876,12.01794 25.32106,22.75012 38.50196,33.50781 21.2238,17.32202 45.70735,28.92829 71.16015,38.44336 16.9486,6.33588 34.47447,10.90228 52.51367,12.93554 14.6395,1.64996 29.32008,3.01587 44.01368,4.06641 4.8781,0.34876 9.86575,-0.5559 14.78125,-1.0957 11.8514,-1.30157 23.79217,-2.14697 35.51367,-4.21289 30.4733,-5.37066 59.23021,-15.75702 86.28711,-30.86133 29.5698,-16.50714 55.30734,-37.6302 77.45897,-63.22852 24.2029,-27.96863 42.1844,-59.49408 53.8672,-94.52148 10.87,-32.59009 16.2458,-66.07889 14,-100.50391 -0.9138,-14.00894 -1.731,-28.13989 -4.2832,-41.90234 -6.7419,-36.35321 -20.1073,-70.25098 -40.6543,-101.12891 -2.0841,-3.13278 -1.6851,-5.07612 0.051,-8.31054 5.3609,-9.98796 10.6975,-20.0998 14.709,-30.66993 3.9672,-10.45331 5.1254,-21.678 5.1894,-33.48828 h -38.5547 c 10.2145,-18.06881 14.9972,-36.73092 15.1661,-56.93164 -2.213,0 -3.8647,-2e-5 -5.5176,0 z M 796.94336,357.4375 c 19.32077,0.71748 38.55877,4.05429 57.66992,10.00977 25.5783,7.57379 48.16046,19.48767 68.60156,35.28515 48.0744,37.15341 77.24656,85.85745 85.75786,146.00781 16.1744,114.30813 -57.40824,221.87343 -169.68364,247.51368 -64.3327,14.69153 -124.23711,2.70415 -178.75781,-34.88282 -24.7548,-17.30756 -44.46424,-38.55658 -60.08594,-63.53515 -80.95,-129.43741 -10.46641,-300.09024 138.33399,-334.69336 19.44065,-4.52088 38.84328,-6.42256 58.16406,-5.70508 z m -48.12305,109.42578 c -5.9917,-0.0314 -10.50945,3.33247 -14.375,7.78711 -9.2742,10.68725 -12.62906,23.63676 -12.94336,37.42383 -0.2036,8.92728 1.31917,17.62519 6.69727,25.12305 5.7533,8.02094 14.23901,9.51372 22.16211,3.6289 3.0144,-2.2389 5.8346,-5.08945 7.8789,-8.22461 9.3535,-14.3447 12.21198,-30.09677 8.51758,-46.78711 -1.7189,-7.7652 -4.93372,-14.936 -13.54492,-18.35937 -1.54991,-0.39722 -3.00988,-0.58454 -4.39258,-0.5918 z m -424.91601,0.41797 c -4.61138,-0.18291 -9.00236,2.06783 -12.32813,6.50977 -1.86102,2.48547 -3.50659,5.34445 -4.41992,8.29101 -5.96613,19.24686 -2.97168,37.29629 8.98828,53.35156 3.039,4.07965 8.68555,6.21842 13.54883,9.28516 9.34692,0.0499 15.12482,-4.16345 18.4375,-14.20703 5.95215,-18.04617 3.07538,-35.17099 -6.88281,-51.06836 -2.22632,-3.55411 -5.52753,-6.73575 -8.98828,-9.15234 -2.74219,-1.91478 -5.58865,-2.90002 -8.35547,-3.00977 z m 594.60937,31.11523 c -4.96844,-0.0197 -10.2334,2.66457 -14.76367,8.20313 -12.9324,15.81073 -15.46893,34.06222 -10.48633,53.97461 2.8835,7.37564 6.24273,14.02576 14.67383,15.20898 9.0112,1.26471 14.91493,-4.19028 19.29883,-10.91797 10.7987,-16.57123 13.73575,-34.61608 6.78125,-53.30273 -3.21767,-8.64573 -9.11592,-13.14062 -15.50391,-13.16602 z m -764.02344,0.6836 c -4.93136,-0.16554 -9.59139,2.45087 -13.04296,7.5 -1.39161,2.03571 -2.53156,4.31265 -3.39844,6.625 -4.31409,11.50769 -3.54834,23.1655 -0.66992,35.25 2.78729,9.09 6.47235,17.21997 13.51171,23.35742 8.94007,7.79462 19.31519,6.25306 25.24219,-3.95898 1.81012,-3.11883 3.32342,-6.61399 4.04297,-10.12696 3.2229,-15.73407 1.29401,-30.86935 -7.05664,-44.72265 -2.42309,-4.01984 -5.8822,-7.75916 -9.66211,-10.54688 -2.95223,-2.17725 -6.00798,-3.27763 -8.9668,-3.37695 z m 358.39844,16.78125 c -4.03784,16.4067 -5.97926,33.26643 -6.87305,50.42383 0.87365,-17.01356 2.81127,-33.92736 6.87305,-50.42383 z m 196.34961,76.40625 c -0.2563,3.11286 -0.59937,5.40948 -0.60937,7.70703 -0.0479,19.67254 4.39358,38.24779 13.95898,55.49023 12.9941,23.42297 32.15198,39.977 56.92188,50.44727 0.246,-0.0337 0.74414,-0.0469 0.74414,-0.0469 0,0 -20.4573,-7.96119 0.2207,0.27539 10.84068,4.31812 22.42868,6.73054 33.64258,7.17774 37.5309,1.49671 67.78441,-13.31867 89.84961,-43.94727 7.7016,-10.69043 12.99132,-22.58288 15.79882,-35.84765 -20.83959,-8.57196 -41.7362,-15.8515 -63.6621,-20.81641 0,0 0.19878,0.50314 -0.29495,-0.87695 -35.1688,-8.48108 -70.26624,-15.05237 -106.02734,-17.51563 -13.4092,-0.92364 -26.85047,-1.36974 -40.54297,-2.04687 z m -345.78516,1.10156 c -34.90789,-0.2356 -88.4428,3.93329 -147.1914,19.58203 26.03698,37.34802 73.7205,95.35895 77.22461,93.46877 22.76087,-9.61303 40.63392,-24.54749 53.46679,-45.27734 12.85945,-20.77301 18.44313,-43.33655 16.5,-67.77344 z m -147.43359,19.50391 c -0.42384,-0.0106 -0.57184,-0.16156 -1.04297,0.0176 -19.17249,6.48322 -38.02002,12.80341 -56.91797,18.96876 -4.28119,1.39672 -5.3742,3.31103 -3.98828,7.95898 13.26233,44.47778 52.90534,74.23711 99.27149,74.19141 13.40906,-0.0132 26.43573,-1.99549 38.58789,-7.7168 2.39385,0.32515 -74.26504,-93.37872 -75.91016,-93.41995 z" /></svg>