<svg viewBox="0 0 512 512" width="512" height="512" xmlns="http://www.w3.org/2000/svg"><path d="m 256,132.575 c -138.125,0 -250,55.25 -250,123.4 0,68.15 111.9,123.45 250,123.45 138.1,0 250,-55.275 250,-123.45 0,-68.175 -111.95,-123.4 -250,-123.4 z m -23.825,27.5 A 289.725,289.725 0 0 1 378.45,175.9 c 10.525,10 -47.025,42.5 -115.525,56.625 C 165.1,252.275 211.65,176.725 232.2,160.1 Z M 64.075,306.25 c -21.75,-15.325 -63.7,-59.25 6.15,-105 a 234.1,234.1 0 0 1 83,-31.65 c 12.325,-2.625 21.075,0.425 10,9.65 A 547.15,547.15 0 0 0 87.25,300.925 c -3.4,11.95 -10.45,15 -23.175,5.325 z M 265.2,357.2 c -41.275,4.35 -133.05,-9.225 -135,-21.075 1.825,-28.55 145.95,-75.9 171.9,-49.775 11,20.775 -10.1,69.675 -36.9,70.85 z m 210,-82.975 c -10.575,24.1 -46.15,51.375 -120.8,69.65 -11.45,2.625 -15.35,-4.35 -7.925,-10.975 A 698.3,698.3 0 0 0 425.55,206.625 c 4.375,-10 12.725,-6.125 18,-2.2 a 60.4,60.4 0 0 1 31.625,69.8 z" /></svg>
