<svg xmlns="http://www.w3.org/2000/svg" viewBox="56.33 457.15 2387.34 3276.322" width="2500" height="2500"><path d="M744.159 1302.441c-195.68 0-366.29 127.439-484.51 309.669-133.25 205.48-203.318 471.562-203.318 726.852 0 140.38 27.728 263.59 84.178 357.48 69.16 115.23 180.821 191.698 357.411 191.698 148.85 0 261.929-66.85 394.339-243.17 75.55-100.68 113.831-161.678 264.911-429.628l75.22-133.252c6.41-11.363 12.033-20.904 18.317-32.02 6.23 10.203 12.085 18.938 18.383 29.46l214.11 357.65c71.98 120.38 165.58 254.292 245.58 329.672 104.11 98.22 198.25 121.298 304.52 121.298v.031c170.94 0 272.56-90.249 324.69-180.569 47.228-81.73 77.408-182.469 84.213-314.178.972-18.804 1.466-38.24 1.466-58.342 0-270.64-67.739-532.91-207.299-741.12-127.52-190.12-294.14-291.49-469.07-291.49-104.19 0-207.689 46.49-303.689 130.18-64.952 56.648-124.87 128.49-180.827 204.107-68.836-87.17-132.962-154.105-195.003-204.729-117.62-96.06-230.302-129.599-343.622-129.599m1010.692 204.32c113.99 0 217.598 75.38 297.538 198.75 112.66 173.93 163.801 417.341 163.801 636.681 0 19.24-.571 38.175-1.856 56.583v.01c-8.993 128.854-52.964 231.826-181.034 231.826v.01c-57.7 0-102.12-22.92-165.54-99.79-49.32-59.86-133.581-186.8-281.691-433.54l-61.35-102.251c-43.7-72.787-85.132-138.077-124.827-196.987 6.978-10.808 14.032-22.23 20.958-32.522 111.5-165.77 210.71-258.77 334-258.77zm-1014.852 54.96c125.86 0 204.732 78.7 266.092 143.88 30.49 32.42 73.375 87.074 122.65 157.178L1027.42 2018.45c-75.3 115.65-187.191 300.12-282.191 431.54-118.55 163.97-180.069 180.662-247.309 180.662-52.132 0-103.264-23.535-137.554-78.977l.033-.024c-.16-.26-.306-.58-.466-.842-6.193-10.126-12.026-21.83-17.33-34.982-.303-.749-.598-1.507-.897-2.265-5.208-13.232-9.865-27.92-13.812-43.957-.239-.972-.47-1.95-.703-2.933-3.854-16.184-6.967-33.725-9.177-52.529q-.198-1.701-.386-3.417c-2.106-19.019-3.276-39.308-3.34-60.783-.003-.607-.05-1.163-.05-1.772 0-221 62.632-451.13 165.002-605.63 18.098-27.335 37.078-52.303 56.96-74.38 9.94-11.04 20.106-21.355 30.5-30.882s21.018-18.265 31.87-26.15 21.934-14.914 33.25-21.024 22.861-11.302 34.644-15.507c11.783-4.204 23.8-7.425 36.055-9.593a215 215 0 0 1 37.48-3.284"/></svg>
