<svg viewBox="56.33 457.15 2387.34 3276.3223" width="2500" height="2500" xmlns="http://www.w3.org/2000/svg"><path d="m 744.15885,1302.441 c -195.6798,0 -366.28932,127.439 -484.5092,309.6688 -133.24986,205.4798 -203.318832,471.5623 -203.318832,726.8521 0,140.3798 27.728504,263.5901 84.178442,357.48 69.15993,115.2299 180.82111,191.6981 357.41093,191.6981 148.84985,0 261.9288,-66.8498 394.33867,-243.1696 75.54992,-100.6799 113.83134,-161.6785 264.91114,-429.6283 l 75.2198,-133.2516 c 6.41,-11.3631 12.0334,-20.9049 18.3167,-32.0209 6.2303,10.2035 12.0855,18.9383 18.3832,29.4613 l 214.1102,357.649 c 71.9799,120.3799 165.5809,254.2923 245.5809,329.6722 104.1098,98.2199 198.2489,121.2982 304.5188,121.2982 v 0.031 c 170.9398,0 272.5612,-90.249 324.6912,-180.5689 47.2272,-81.731 77.4073,-182.469 84.2117,-314.1788 0.972,-18.8037 1.4661,-38.2404 1.4667,-58.3416 0,-270.6397 -67.7392,-532.9097 -207.2991,-741.1194 -127.5199,-190.1199 -294.1397,-291.4904 -469.0695,-291.4904 -104.1899,0 -207.6896,46.4902 -303.6895,130.1801 -64.9517,56.6477 -124.8695,128.4897 -180.8274,204.1072 C 1213.948,1549.5999 1149.8223,1482.6642 1087.7811,1432.04 970.16119,1335.9801 857.47874,1302.441 744.15885,1302.441 Z m 1010.69175,204.3197 c 113.9898,0 217.5987,75.38 297.5387,198.7499 112.6598,173.9298 163.8007,417.3417 163.8007,636.6815 0,19.24 -0.5712,38.1748 -1.8557,56.5831 -3e-4,0 2e-4,0.01 0,0.01 -8.993,128.8535 -52.9646,231.8254 -181.0347,231.8254 v 0.01 c -57.7,0 -102.1189,-22.9197 -165.5388,-99.7896 -49.3199,-59.8599 -133.5822,-186.7996 -281.692,-433.5393 l -61.3492,-102.252 c -43.7003,-72.7871 -85.133,-138.0769 -124.8279,-196.9863 6.9782,-10.8087 14.0324,-22.2308 20.9583,-32.5227 111.4999,-165.7698 210.7107,-258.7705 334.0006,-258.7705 z M 739.99946,1561.721 c 125.85987,0 204.73118,78.6992 266.09114,143.8791 30.4901,32.4212 73.3758,87.0748 122.6496,157.179 L 1027.42,2018.4505 c -75.29997,115.6499 -187.19132,300.1204 -282.19122,431.5403 -118.54989,163.9698 -180.06865,180.661 -247.30859,180.661 -52.13231,0 -103.26446,-23.5348 -137.55434,-78.9773 l 0.0333,-0.023 c -0.16047,-0.2597 -0.30584,-0.5803 -0.46585,-0.8421 -6.19375,-10.1268 -12.02597,-21.8306 -17.33123,-34.9824 -0.30188,-0.749 -0.59751,-1.5068 -0.89587,-2.2653 -5.20857,-13.232 -9.86521,-27.919 -13.81175,-43.9565 -0.23918,-0.9727 -0.47007,-1.9506 -0.70389,-2.9333 -3.85332,-16.1838 -6.96611,-33.7253 -9.17627,-52.5287 -0.1333,-1.1353 -0.25989,-2.2725 -0.3865,-3.4171 -2.10579,-19.0191 -3.27536,-39.3081 -3.34031,-60.7834 -0.002,-0.6065 -0.0486,-1.1629 -0.0486,-1.7713 0,-220.9998 62.63133,-451.1309 165.00123,-605.6307 18.09748,-27.335 37.07767,-52.3031 56.95937,-74.3802 9.94085,-11.0386 20.1064,-21.3548 30.50051,-30.8819 10.39412,-9.5272 21.01774,-18.2648 31.86992,-26.1492 10.85217,-7.8843 21.9345,-14.9145 33.24955,-21.0247 11.31505,-6.1103 22.86183,-11.3014 34.64455,-15.5063 11.78272,-4.2048 23.7997,-7.4254 36.0549,-9.5934 12.25521,-2.1681 24.74813,-3.284 37.48062,-3.284 z" /></svg>
