<svg xmlns="http://www.w3.org/2000/svg" viewBox="0 0 229 229" width="229" height="229"><path d="M114.5 0C51.263 0 0 51.263 0 114.5S51.263 229 114.5 229 229 177.737 229 114.5 177.737 0 114.5 0m2.17 41.537c18.541 0 28.537 9.312 28.537 23.254 0 3.165-.951 13.26-7.498 17.027 7.746 3.584 11.621 9.076 11.621 18.153.025 14.255-12.844 24.273-30.336 24.273a155 155 0 0 1-27.062-2.93l-1.051-1.253a.55.55 0 0 1 0-.29c2.274-27.909 2.4-55.61-.399-73.396a1.6 1.6 0 0 1 0-.312 1.28 1.28 0 0 1 .461-1.04c.347-.282.643-.276 1.078-.378a116.5 116.5 0 0 1 24.649-3.108m-58.441 7.92c14.71.252 25.292 7.814 28.279 20.852 3.548 16.27-6.772 31.573-26.088 36.28l-4.996 1.046 2.847 13.994.95 3.95.375 1.622c.074.333.02.683-.155.973-.173.29-.45.495-.77.57l-18.017 5.729c-.654.146-1.3-.286-1.449-.97-.038-.35-.018-.55-.053-.901-1.528-15.537-10.883-59.29-16.289-72.39a1.15 1.15 0 0 1-.047-.964c.213-.521.635-.603 1.143-.846a103.3 103.3 0 0 1 21.02-7.396c4.69-1.116 9.13-1.62 13.25-1.549m120.843.354c1.993-.035 4.07.12 6.215.478 8.553 1.625 16.465 5.796 22.79 12.016l.364 1.146a1.3 1.3 0 0 1-.437.711c-9.226 10.276-9.336 10.6-10.072 11.168-.391.302-.67.584-1.15.473a4.5 4.5 0 0 1-1.604-.922c-13.786-10.024-20.874-6.132-21.237-2.563-.363 3.57 2.743 7.353 10.682 10.547 9.039 3.698 21.809 10.21 19.736 25.817-1.957 14.853-14.162 24.243-30.277 22.347-9.75-1.155-18.728-6.05-25.201-13.742a1.23 1.23 0 0 1-.34-1.142q.145-.366.361-.69l10.348-11.19a1.08 1.08 0 0 1 1.121-.36 1 1 0 0 1 .631.347c4.348 4.745 10.022 7.932 16.213 9.105 7.442.759 12.02-7.776.11-12.54-16.768-6.619-25.009-14.571-23.573-27.592 1.486-13.674 11.372-23.174 25.32-23.414m-63.164 8.681c-4.044.075-4.785.805-4.785.805l.125 15.982c1.2.262 16.591 1.778 16.441-7.978-.072-4.964-4.269-8.481-10.478-8.7zm-59.865 8.799c-1.286-.017-2.655.137-4.094.48-1.524.367-5.172 1.624-5.172 1.624l4.598 20.923a19 19 0 0 0 2.338-.32l1.256-.209c9.425-2.37 13.145-7.574 11.773-13.883-1.137-5.228-5.128-8.54-10.699-8.615m61.05 23.08c-2.123 0-5.87.47-5.87.47v16.22a27 27 0 0 0 6.39.837l1.36-.113c9.234-.204 10.692-4.755 10.765-9.383.1-5.937-6.947-8.03-12.644-8.03m5.667 50.45c10.652-.027 26.19 2.84 26.433 19.74.101 6.97-1.74 12.337-4.976 16.035-4.935 5.653-9.89 6.549-12.766 7.125-.983.197-2.327.256-3.33.27-1.688.021-5.132.054-7.16-.007-2.976-.088-9.107-.521-9.107-.521l-.565-.405-.062-.793s.71-5.869.933-18.964c.222-14.27-.043-19.46-.012-20.793.007-.301.217-.502.217-.502l.576-.366s4.239-.806 9.819-.82zm-23.666.634.619.23.248.51s.41 8.447.922 19.25c.286 11.527.918 21.366.918 21.366l-.233.474-.466.332-8.944.469-.69-.172-.347-.465s-.309-9.695-.558-20.414c-.488-10.498-1.069-20.308-1.069-20.308l.133-.682.62-.404zm-21.774 1.961.264.272.104.482s-3.52 7.905-6.424 12.576c-1.827 3.15-5.47 8.434-5.47 8.434s5.487 3.942 9.405 7.195 12.05 11.352 12.05 11.352.17.349.17.507c0 .116-.17.356-.17.356s-9.383 1.274-11.097 1.484c-.517.064-.757-.002-.757-.002s-.398-.125-.602-.297L59.211 172.61l-2.1 2.965 2.55 12.744-.061.616-.325.347-8.931 1.674-.598-.256-.326-.414s.454-.745-3.018-19.98c-3.957-19.436-4.447-19.702-4.447-19.702l.069-.455.414-.521 8.412-1.693.738.142.498.537 3.094 15.31s4.38-6.254 6.363-9.54c1.904-3.154 4.705-9.16 4.705-9.16l.334-.51.533-.281zm95.477 1.742c8.681.077 16.765 7.196 16.765 7.196s.22.106.233.332c.015.263-.002.41-.002.41l-5.106 6.027s-.242.217-.359.229c-.15.015-.514-.047-.514-.047s-5.115-3.8-9.878-4.784c-3.062-.631-6.702.19-6.342 2.971.614 5.487 18.463 5.868 18.361 18.858-.059 7.517-5.941 12.871-14.904 12.681-13.313-.282-18.856-8.318-18.856-8.318s-.114-.36-.17-.512c-.054-.149.086-.54.086-.54l4.942-6.028s.281-.051.42-.051c.136 0 .404.05.404.05s3.526 3.248 7.91 5.126c2.551 1.093 4.98 1.269 6.549 1.095 1.817-.603 3.403-1.603 3.392-3.517-.032-5.716-18.802-6.65-18.263-19.172.108-6.938 6.323-11.98 15.332-12.006m-46.854 4.963c-2.978-.009-4.025.045-4.025.045l-.576 24.375s2.025.264 4.693.262c5.027-.005 12.336-1.589 12.682-12.12.345-10.53-7.905-12.547-12.774-12.562"/></svg>
