<svg fill="#FFFFFF" xmlns="http://www.w3.org/2000/svg" viewBox="0 0 229 229" width="229" height="229"><path d="M 114.5,0 C 51.26346,0 0,51.26346 0,114.5 0,177.73654 51.26346,229 114.5,229 177.73654,229 229,177.73654 229,114.5 229,51.26346 177.73654,0 114.5,0 Z m 2.16992,41.53711 c 18.5413,0 28.53711,9.31224 28.53711,23.25391 0,3.16498 -0.9511,13.26073 -7.49805,17.02734 7.74639,3.58352 11.6211,9.07587 11.6211,18.15234 0.025,14.25556 -12.84414,24.27344 -30.33594,24.27344 -9.08328,-0.18073 -18.13613,-1.16081 -27.0625,-2.92969 l -1.05078,-1.2539 c -0.0257,-0.094 -0.0257,-0.19505 0,-0.28907 2.27394,-27.90949 2.40026,-55.60974 -0.39844,-73.39648 -0.01,-0.10437 -0.01,-0.20813 0,-0.3125 -0.0153,-0.41568 0.1648,-0.79741 0.46094,-1.03906 0.34659,-0.28282 0.64278,-0.27601 1.07812,-0.37891 8.09306,-1.91279 16.35197,-2.95337 24.64844,-3.10742 z m -58.4414,7.91992 c 14.71014,0.25219 25.29242,7.81395 28.27929,20.85156 3.54834,16.26964 -6.77193,31.573 -26.08789,36.28125 l -4.99609,1.04493 2.84765,13.99414 0.94922,3.94921 c 0.14597,0.63299 0.375,1.62305 0.375,1.62305 0.0746,0.33312 0.0194,0.68279 -0.15429,0.97266 -0.17365,0.28987 -0.45059,0.49556 -0.76953,0.57031 l -18.01758,5.72852 c -0.65461,0.14631 -1.30005,-0.2857 -1.44922,-0.96875 -0.0385,-0.3506 -0.0182,-0.55134 -0.0527,-0.90235 C 37.6245,117.06517 28.26906,73.31284 22.86332,60.21289 c -0.15725,-0.2964 -0.17392,-0.65294 -0.0469,-0.96484 0.21233,-0.52143 0.63465,-0.60279 1.14257,-0.84571 6.74105,-3.224 13.78609,-5.70265 21.01954,-7.39648 4.68998,-1.11576 9.13115,-1.61944 13.25,-1.54883 z m 120.84375,0.35352 c 1.99253,-0.0344 4.06922,0.12008 6.21484,0.47851 8.55264,1.62461 16.46466,5.79562 22.78906,12.01563 l 0.36524,1.14648 c -0.0654,0.28131 -0.21941,0.53224 -0.4375,0.71094 -9.22613,10.27631 -9.33604,10.59968 -10.07227,11.16797 -0.39073,0.3016 -0.66953,0.58398 -1.15039,0.47265 -0.58858,-0.19151 -1.13429,-0.5046 -1.60352,-0.92187 -13.78572,-10.0238 -20.87339,-6.13188 -21.23632,-2.5625 -0.36293,3.56938 2.74224,7.35275 10.68164,10.54687 9.03893,3.69728 21.80848,10.20954 19.73633,25.81641 -1.95748,14.85332 -14.16226,24.24313 -30.27735,22.34766 -9.74947,-1.15499 -18.72766,-6.05123 -25.20117,-13.74219 -0.30032,-0.2898 -0.42956,-0.72401 -0.33984,-1.14258 0.096,-0.24251 0.21702,-0.47456 0.36132,-0.68945 L 159.25,104.26562 c 0.27726,-0.33485 0.71368,-0.476 1.12109,-0.36132 0.2442,0.0324 0.46721,0.15582 0.63086,0.34765 4.34825,4.7451 10.02164,7.93198 16.21289,9.10547 7.44196,0.7582 12.01981,-7.77593 0.10938,-12.54101 -16.76744,-6.6184 -25.00796,-14.57075 -23.57227,-27.5918 1.48565,-13.67325 11.37252,-23.1734 25.32032,-23.41406 z m -63.16407,8.68164 c -4.0446,0.0749 -4.78515,0.80469 -4.78515,0.80469 l 0.125,15.98242 c 1.19944,0.26156 16.59133,1.77803 16.4414,-7.97852 -0.0726,-4.96402 -4.26916,-8.48093 -10.47851,-8.69922 z m -59.86523,8.79883 c -1.2857,-0.0175 -2.65536,0.13715 -4.09375,0.48046 -1.52429,0.3662 -5.17188,1.62305 -5.17188,1.62305 L 51.375,90.31836 c 0.78483,-0.0585 1.5655,-0.16551 2.33789,-0.32031 l 1.25586,-0.20899 C 64.39387,87.4186 68.11417,82.21505 66.74219,75.90625 65.60522,70.67813 61.61431,67.3669 56.04297,67.29102 Z m 61.05078,23.08007 c -2.124,0 -5.87109,0.47071 -5.87109,0.47071 v 16.21875 c 2.09371,0.53427 4.23723,0.81471 6.39062,0.83789 l 1.35938,-0.11328 c 9.23428,-0.20378 10.69236,-4.75559 10.76562,-9.38282 0.1,-5.93763 -6.9472,-8.03125 -12.64453,-8.03125 z m 5.66602,50.44922 c 10.65229,-0.0262 26.18954,2.84082 26.43359,19.74024 0.10066,6.97062 -1.73995,12.33766 -4.97656,16.03515 -4.93466,5.65352 -9.88953,6.54913 -12.76563,7.125 -0.98336,0.19689 -2.32728,0.25647 -3.33008,0.26953 -1.68855,0.022 -5.13254,0.0545 -7.16015,-0.006 -2.97556,-0.0884 -9.10742,-0.52149 -9.10742,-0.52149 l -0.56446,-0.4043 -0.0625,-0.79297 c 0,0 0.71009,-5.86946 0.9336,-18.96484 0.22212,-14.27015 -0.0427,-19.45894 -0.0117,-20.79297 0.007,-0.30063 0.21679,-0.50195 0.21679,-0.50195 l 0.57618,-0.36524 c 0,0 4.23857,-0.80659 9.81836,-0.82031 z m -23.66602,0.63477 0.61914,0.23047 0.24805,0.50976 c 0,0 0.41036,8.44692 0.92187,19.25 0.28599,11.52706 0.91797,21.36524 0.91797,21.36524 l -0.23242,0.47461 -0.4668,0.33203 -8.94336,0.46875 -0.68945,-0.17188 -0.34766,-0.46484 c 0,0 -0.30894,-9.69499 -0.55859,-20.41406 -0.4879,-10.4985 -1.06836,-20.3086 -1.06836,-20.3086 l 0.13281,-0.68164 0.61914,-0.4043 z m -21.77344,1.96094 0.26367,0.27148 0.10352,0.48242 c 0,0 -3.51926,7.9049 -6.42383,12.57617 -1.8267,3.14987 -5.46875,8.4336 -5.46875,8.4336 0,0 5.48647,3.94237 9.4043,7.19531 3.91781,3.25293 12.04883,11.35156 12.04883,11.35156 0,0 0.17187,0.34906 0.17187,0.50782 0,0.1153 -0.17187,0.35546 -0.17187,0.35546 0,0 -9.38178,1.27451 -11.09571,1.48438 -0.5169,0.0633 -0.75781,-0.002 -0.75781,-0.002 0,0 -0.3979,-0.1248 -0.60156,-0.29688 -1.35625,-1.14598 -15.58203,-13.16601 -15.58203,-13.16601 l -2.09961,2.96484 2.54883,12.74414 -0.0605,0.61523 -0.32422,0.34766 -8.93164,1.67383 -0.59766,-0.25586 -0.32617,-0.41406 c 0,0 0.45431,-0.74498 -3.01758,-19.98047 -3.95711,-19.4356 -4.44726,-19.70117 -4.44726,-19.70117 l 0.0684,-0.45508 0.41406,-0.52149 8.41211,-1.69336 0.73828,0.14258 0.49805,0.53711 3.09375,15.31055 c 0,0 4.37953,-6.25435 6.36328,-9.54102 1.90365,-3.15393 4.70508,-9.16015 4.70508,-9.16015 l 0.33398,-0.50977 0.5332,-0.28125 z m 95.47657,1.74218 c 8.68113,0.0771 16.76562,7.19532 16.76562,7.19532 0,0 0.21991,0.10683 0.23242,0.33203 0.0146,0.26298 -0.002,0.41015 -0.002,0.41015 l -5.10547,6.02735 c 0,0 -0.24289,0.21686 -0.35938,0.22851 -0.14959,0.015 -0.51367,-0.0469 -0.51367,-0.0469 0,0 -5.11579,-3.80008 -9.8789,-4.78321 -3.06144,-0.63188 -6.70151,0.18908 -6.3418,2.97071 0.61471,5.48682 18.46332,5.86761 18.36133,18.85742 -0.059,7.51695 -5.94136,12.87172 -14.9043,12.68164 -13.31306,-0.28232 -18.85547,-8.31836 -18.85547,-8.31836 0,0 -0.11438,-0.35897 -0.16992,-0.51172 -0.0542,-0.14909 0.0859,-0.54101 0.0859,-0.54101 l 4.9414,-6.02735 c 0,0 0.28142,-0.0508 0.41993,-0.0508 0.13593,0 0.40429,0.0508 0.40429,0.0508 0,0 3.52645,3.24673 7.91016,5.125 2.55104,1.09303 4.97917,1.26907 6.54883,1.09571 1.81679,-0.60338 3.40357,-1.60325 3.39258,-3.51758 -0.0328,-5.71601 -18.80211,-6.64944 -18.26368,-19.17188 0.10844,-6.93755 6.32359,-11.98009 15.33204,-12.00586 z m -46.85352,4.96289 c -2.97853,-0.009 -4.02539,0.0449 -4.02539,0.0449 l -0.57617,24.375 c 0,0 2.02522,0.26417 4.69336,0.26171 5.02686,-0.005 12.33602,-1.58851 12.68164,-12.11914 0.34562,-10.53063 -7.905,-12.5472 -12.77344,-12.5625 z" /></svg>
