<svg xmlns="http://www.w3.org/2000/svg" viewBox="0 0 448 512"> <path d="m 393.20086,246.19713 c -7.7,10 -70,67 -174.5,67 -104.5,0 -184.499996,-71.5 -208.9999955,-101 -6.8,-7.7 0.9999995,-11.3 5.4999995,-8.3 73.3,44.5 187.799996,117.8 372.499996,30.3 7.5,-3.7 13.3,2 5.5,12 z m 39.8,2.2 c -6.5,15.8 -16,26.8 -21.2,31 -5.5,4.5 -9.5,2.7 -6.5,-3.8 3,-6.5 19.3,-46.5 12.7,-55 -6.5,-8.3 -37,-4.3 -48,-3.2 -10.8,1 -13,2 -14,-0.3 -2.3,-5.7 21.7,-15.5 37.5,-17.5 15.7,-1.8 41,-0.8 46,5.7 3.7,5.1 0,27.1 -6.5,43.1 z" /></svg>
