<svg fill="#FFFFFF" xmlns="http://www.w3.org/2000/svg" viewBox="0 0 32 32" width="512px" height="512px"><path d="M 0 12 L 0 14 L 8.5 14 C 8.7869372 14 9 14.213063 9 14.5 C 9 14.786937 8.7869372 15 8.5 15 L 2 15 C 0.9069372 15 0 15.906937 0 17 L 0 20 L 2 20 L 2 17 L 8.5 17 C 9.5937648 17 10.368597 16.197398 10.703125 15.208984 A 1.0001 1.0001 0 0 0 11 14.5 C 11 13.130937 9.8690628 12 8.5 12 L 0 12 z M 16 12 C 14.906937 12 14 12.906937 14 14 L 14 18 L 9 18 L 9 20 L 14 20 C 15.093063 20 16 19.093063 16 18 L 16 14 L 21 14 L 21 12 L 16 12 z M 22 12 L 22 14 L 29.5 14 C 29.786937 14 30 14.213063 30 14.5 C 30 14.786937 29.786937 15 29.5 15 L 22 15 L 22 17 L 29.5 17 C 29.786937 17 30 17.213063 30 17.5 C 30 17.786937 29.786937 18 29.5 18 L 22 18 L 22 20 L 29.5 20 C 30.869063 20 32 18.869063 32 17.5 C 32 16.937261 31.802571 16.420272 31.482422 16 C 31.802571 15.579728 32 15.062739 32 14.5 C 32 13.130937 30.869063 12 29.5 12 L 22 12 z"/></svg>
