<svg xmlns="http://www.w3.org/2000/svg" viewBox="0 0 32 32" width="512" height="512"><path d="M0 12v2h8.5c.287 0 .5.213.5.5s-.213.5-.5.5H2c-1.093 0-2 .907-2 2v3h2v-3h6.5c1.094 0 1.869-.803 2.203-1.791A1 1 0 0 0 11 14.5c0-1.37-1.13-2.5-2.5-2.5zm16 0c-1.093 0-2 .907-2 2v4H9v2h5c1.093 0 2-.907 2-2v-4h5v-2zm6 0v2h7.5c.287 0 .5.213.5.5s-.213.5-.5.5H22v2h7.5c.287 0 .5.213.5.5s-.213.5-.5.5H22v2h7.5c1.37 0 2.5-1.13 2.5-2.5a2.47 2.47 0 0 0-.518-1.5c.32-.42.518-.937.518-1.5 0-1.37-1.13-2.5-2.5-2.5z"/></svg>
