<svg xmlns="http://www.w3.org/2000/svg" viewBox="0 0 32 32" width="512px" height="512px"><path d="M 0 12 L 0 14 L 8.5 14 C 8.7869372 14 9 14.213063 9 14.5 C 9 14.786937 8.7869372 15 8.5 15 L 2 15 C 0.9069372 15 0 15.906937 0 17 L 0 20 L 2 20 L 2 17 L 8.5 17 C 9.5937648 17 10.368597 16.197398 10.703125 15.208984 A 1.0001 1.0001 0 0 0 11 14.5 C 11 13.130937 9.8690628 12 8.5 12 L 0 12 z M 16 12 C 14.906937 12 14 12.906937 14 14 L 14 18 L 9 18 L 9 20 L 14 20 C 15.093063 20 16 19.093063 16 18 L 16 14 L 21 14 L 21 12 L 16 12 z M 29.970703 12 A 1.0001 1.0001 0 0 0 29.513672 12.125 L 20.513672 17.125 A 1.0001 1.0001 0 0 0 21 19 L 29 19 L 29 20 L 31 20 L 31 19 L 32 19 L 32 17 L 31 17 L 31 13 A 1.0001 1.0001 0 0 0 29.970703 12 z M 29 14.701172 L 29 17 L 24.861328 17 L 29 14.701172 z"/></svg>
