<svg viewBox="0 0 320 320" xmlns="http://www.w3.org/2000/svg"><path d="M0 57.5v171c0 9.034 7.106 16 16.5 16h287c8.456 0 16.5-8.776 16.5-16.9V58c0-7.919-7.909-16-15.7-16H15.4C7.682 42 0 50.026 0 57.5M171.5 74c8.3 1.2 15.9 3.6 17.4 5.4.9 1 .3 3.1-2.2 8.2-4.8 10-4.2 9.6-8.5 7.1-9.724-4.972-22.464-2.655-29.5 5.5-3.5 4.3-4.6 11.5-2.7 17.2 1.6 5.1 9.2 11.4 21.1 17.7 18.9 9.9 26.8 19.9 27.7 34.8 1 17.2-7.5 31.6-22.3 38.2-10.5 4.6-29.5 3.5-41.2-2.3-6.5-3.3-6.7-3.7-4.8-12.3 1.4-6.2 2-7.6 3.4-7.2.9.3 4.8 1.8 8.6 3.2 4.9 1.9 9.6 2.9 15.5 3.2 7.5.4 9 .2 13-1.9 5.8-3 9-8.9 9-16.6 0-10.3-3.5-14.2-22.4-25.3-12.5-7.3-21.1-15.1-24.7-22.4-5.71-13.939-3.061-30.785 7.1-41.9 5.2-5.6 11.6-9 19.3-10.6 5.8-1.1 8.2-1.1 16.2 0M57.3 268.2c-.195 3.74 1.574 9.8 5.5 9.8h193.025c3.957 0 5.789-5.532 5.775-9.134-.013-3.513-2.276-8.866-5.7-8.866H63.1c-3.548 0-5.626 4.857-5.8 8.2"/></svg>
