<svg xmlns="http://www.w3.org/2000/svg" viewBox="0 0 3403.3 3403.3"><path d="M1701.7 706.65c425.9 0 882.5 86.8 1245.9 317.4 236 151 455.7 379.8 455.7 678 0 348.2-297.4 601.4-582.3 749.6-339 175.5-739.6 245-1119.4 245-425.8 0-881.5-85.8-1245-317.3-236-151-456.6-379.8-456.6-677.3 0-349.8 296.6-602.1 582.3-750.4 340-175.4 739.7-245 1119.4-245m-3.6 105.8c-396 0-822.8 74.1-1166.4 281.1-216.1 129.3-429.5 332.8-429.5 603.1 0 317.5 289.3 539.7 547.9 667.3 320.1 156.3 694.4 217.1 1048 217.1 396.8 0 823.7-74.3 1167.3-281.3 215.2-130.2 429.5-332.7 429.5-603 0-318.2-288.5-540.7-547.9-667.2-320.2-156.6-694.5-217.1-1048.9-217.1m-1494.6 664.5 651.9-111.2 196.2-425.9 195.4 425.9 651.8 111.2-651.8 112.2-195.4 426.8-196.2-426.8zm1433.1 324.5 287.5-50.5 85.9-192.6 85.9 192.6 287.6 50.5-287.6 49.7-85.9 192.7-85.9-192.7zm595-513.5 287.5-49.7 85.9-193.4 85.9 193.4 287.5 49.7-287.5 50.6-85.9 192.7-86-192.7zm-307.5 911.5 286.6-49.7 85.9-193.5 86.8 193.5 287.5 49.7-287.5 50.6-86.8 192.7-85.9-192.7zm-883.3 69.6 287.5-49.7 86.8-193.7 85.8 193.7 287.6 49.7-287.6 50.6-85.8 192.7-86.8-192.7zm1445.8-475.5 286.6-50.7 85.9-192.6 86.8 192.6 287.5 50.7-287.5 49.7-86.9 192.4-85.9-192.5z"/></svg>
