<svg xmlns="http://www.w3.org/2000/svg" viewBox="0 0 3403.3001 3403.3"><path d="m 1701.7,706.65002 c 425.9,0 882.5,86.8 1245.9,317.39998 236,151 455.7,379.8 455.7,678 0,348.2 -297.4,601.4 -582.3,749.6 -339,175.5 -739.6,245 -1119.4,245 -425.8,0 -881.49998,-85.8 -1244.99998,-317.3 -236,-151 -456.599995585938,-379.8 -456.599995585938,-677.3 0,-349.8 296.599995585938,-602.1 582.299995585938,-750.39998 340,-175.4 739.69998,-245 1119.39998,-245 z m -3.6,105.8 c -396,0 -822.79998,74.1 -1166.39998,281.09998 -216.1,129.3 -429.5,332.8 -429.5,603.1 0,317.5 289.3,539.7 547.9,667.3 320.1,156.3 694.39998,217.1 1047.99998,217.1 396.8,0 823.7,-74.3 1167.3,-281.3 215.2,-130.2 429.5,-332.7 429.5,-603 0,-318.2 -288.5,-540.7 -547.9,-667.2 C 2426.8,872.95002 2052.5,812.45002 1698.1,812.45002 Z M 203.50002,1476.95 l 651.9,-111.2 L 1051.6,939.85002 1247,1365.75 l 651.8,111.2 -651.8,112.2 -195.4,426.8 -196.19998,-426.8 z m 1433.09998,324.5 287.5,-50.5 85.9,-192.6 85.9,192.6 287.6,50.5 -287.6,49.7 -85.9,192.7 -85.9,-192.7 z m 595,-513.5 287.5,-49.7 85.9,-193.4 85.9,193.4 287.5,49.7 -287.5,50.6 -85.9,192.7 -86,-192.7 z m -307.5,911.5 286.6,-49.7 85.9,-193.5 86.8,193.5 287.5,49.7 -287.5,50.6 -86.8,192.7 -85.9,-192.7 z m -883.3,69.6 287.5,-49.7 86.8,-193.7 85.8,193.7 287.6,49.7 -287.6,50.6 -85.8,192.7 -86.8,-192.7 z m 1445.8,-475.5 286.6,-50.7 85.9,-192.6 86.8,192.6 287.5,50.7 -287.5,49.7 -86.9,192.4 -85.9,-192.5 z" id="path11343" /></svg>
