<svg fill="#FFFFFF" xmlns="http://www.w3.org/2000/svg" viewBox="0 0 148.43 148.42999"><path d="m 112.9549,17.012101 c -4.59,-0.09 -78.431107,9.41977 -87.371097,12.75977 a 43.55,43.55 0 0 0 -16,9.82031 c -6.67999,6.71 -8.00015,13.23142 -6.91015,24.69141 1,10.38999 5.76062,44.860009 8.14062,51.999999 2.64,7.87999 7.48978,13.92906 15.50977,14.78906 24.44997,2.67 30.21005,-10.99984 86.999997,-10.83984 17.21998,0 25.76985,-7.60001 29.33984,-14.25 4.19,-7.839989 3.40008,-18.130089 3.33008,-23.580079 -0.09,-7.13999 -4.14961,-41.00094 -6.09961,-46.21094 -1.26,-3.38999 -3.9311,-9.57961 -8.87109,-13.34961 -6.33,-4.81999 -11.48837,-5.70008 -18.06836,-5.83008 z m -53.949217,36.90625 c 1.03547,-0.0501 2.47883,0.39649 3.04883,0.58399 4.41999,1.41 26.53993,9.23977 33.41992,12.75976 0.2,0.11 0.42039,0.20079 0.65039,0.30079 1,0.42 2.32937,0.99992 2.35937,2.66992 0.03,1.67 -1.20015,2.31015 -2.16015,2.91015 l -0.54102,0.33985 c -1.43,1 -2.84953,1.99945 -4.26953,2.93945 l -22.43945,15.50977 c -1.63,1.25 -4.69938,3.22156 -5.85938,2.60156 -1.16,-0.62 -1.58133,-4.9 -1.86133,-7 l -0.0703,-0.46094 c -0.34,-2.49 -3.09992,-26.22984 -3.41992,-28.83984 -0.09,-0.74 -0.53898,-3.45031 0.29102,-4.07031 0.2075,-0.155 0.5064,-0.22743 0.85156,-0.24415 z" /></svg>
