<svg xmlns="http://www.w3.org/2000/svg" viewBox="0 0 148.43 148.43"><path d="M112.955 17.012c-4.59-.09-78.431 9.42-87.371 12.76a43.55 43.55 0 0 0-16 9.82c-6.68 6.71-8 13.232-6.91 24.692 1 10.39 5.76 44.86 8.14 52 2.64 7.88 7.49 13.929 15.51 14.789 24.45 2.67 30.21-11 87-10.84 17.22 0 25.77-7.6 29.34-14.25 4.19-7.84 3.4-18.13 3.33-23.58-.09-7.14-4.15-41.001-6.1-46.211-1.26-3.39-3.93-9.58-8.87-13.35-6.33-4.82-11.49-5.7-18.07-5.83m-53.95 36.906c1.036-.05 2.48.397 3.05.584 4.42 1.41 26.54 9.24 33.42 12.76.2.11.42.2.65.3 1 .42 2.33 1 2.36 2.67s-1.201 2.311-2.161 2.911l-.541.34c-1.43 1-2.85 2-4.27 2.94L69.074 91.931c-1.63 1.25-4.7 3.222-5.86 2.602s-1.58-4.9-1.86-7l-.071-.461c-.34-2.49-3.1-26.23-3.42-28.84-.09-.74-.539-3.45.291-4.07.208-.155.507-.228.852-.245"/></svg>
