<?xml version="1.0" encoding="UTF-8" standalone="no"?>
<!-- Created with Inkscape (http://www.inkscape.org/) -->

<svg
   width="67.439003mm"
   height="90.132004mm"
   viewBox="0 0 67.439003 90.132004"
   version="1.1"
   id="svg1"
   inkscape:export-filename="subaru.png"
   inkscape:export-xdpi="164.39"
   inkscape:export-ydpi="164.39"
   inkscape:version="1.3.2 (091e20e, 2023-11-25, custom)"
   sodipodi:docname="subaru.svg"
   xmlns:inkscape="http://www.inkscape.org/namespaces/inkscape"
   xmlns:sodipodi="http://sodipodi.sourceforge.net/DTD/sodipodi-0.dtd"
   xmlns="http://www.w3.org/2000/svg"
   xmlns:svg="http://www.w3.org/2000/svg">
  <sodipodi:namedview
     id="namedview1"
     pagecolor="#ffffff"
     bordercolor="#666666"
     borderopacity="1.0"
     inkscape:showpageshadow="2"
     inkscape:pageopacity="0.0"
     inkscape:pagecheckerboard="0"
     inkscape:deskcolor="#d1d1d1"
     inkscape:document-units="mm"
     inkscape:zoom="2.8284271"
     inkscape:cx="138.94648"
     inkscape:cy="178.01413"
     inkscape:window-width="1731"
     inkscape:window-height="1269"
     inkscape:window-x="2559"
     inkscape:window-y="26"
     inkscape:window-maximized="0"
     inkscape:current-layer="layer1" />
  <defs
     id="defs1" />
  <g
     inkscape:label="Layer 1"
     inkscape:groupmode="layer"
     id="layer1"
     transform="translate(-4.3340454,-2.7837015)">
    <g
       id="binary_sensor.opengarage_vehicle"
       inkscape:label="Subaru"
       transform="matrix(0.26458333,0,0,0.26458333,-350.78905,-175.73219)">
      <path
         id="path14066"
         d="m 1400.2231,923.27829 c 2.376,0 4.4127,1.69728 4.4127,4.07346 v 41.41348 c 0,2.37618 -2.0367,4.41291 -4.4127,4.41291 -2.3764,0 -4.4131,-2.03673 -4.4131,-4.41291 v -41.41348 c -0.3394,-2.37618 1.6973,-4.07346 4.4131,-4.07346 z"
         inkscape:connector-curvature="0"
         style="stroke-width:3.39455" />
      <path
         id="path14068"
         d="m 1398.1859,734.54144 c 2.3762,0 4.4129,1.69727 4.4129,4.07344 v 41.41349 c 0,2.37618 -2.0367,4.41291 -4.4129,4.41291 -2.3763,0 -4.4129,-2.03673 -4.4129,-4.41291 v -41.41349 c 0,-2.37617 2.0366,-4.07344 4.4129,-4.07344 z"
         inkscape:connector-curvature="0"
         style="stroke-width:3.39455" />
      <path
         id="path14070"
         d="m 1538.7872,923.27829 c 2.376,0 4.4127,1.69728 4.4127,4.07346 v 41.41348 c 0,2.37618 -2.0367,4.41291 -4.4127,4.41291 -2.3764,0 -4.4131,-2.03673 -4.4131,-4.41291 v -41.41348 c 0,-2.37618 2.0367,-4.07346 4.4131,-4.07346 z"
         inkscape:connector-curvature="0"
         style="stroke-width:3.39455" />
      <path
         id="path14072"
         d="m 1540.787,734.54144 c 2.3761,0 4.4129,1.69727 4.4129,4.07344 v 41.41349 c 0,2.37618 -2.0368,4.41291 -4.4129,4.41291 -2.3762,0 -4.413,-2.03673 -4.413,-4.41291 v -41.41349 c 0,-2.37617 2.0368,-4.4129 4.413,-4.07344 z"
         inkscape:connector-curvature="0"
         style="stroke-width:3.39455" />
      <path
         id="path14062"
         d="m 1559.0876,796.3222 c 0.3395,-2.03673 0.3395,-4.41292 -0.679,-6.44965 -1.6972,-2.37618 -10.8623,-6.11019 -15.2754,-5.09181 -0.3395,2.71563 -0.3395,5.43127 0,8.14691 4.7523,1.01837 15.9544,3.39455 15.9544,3.39455 z"
         inkscape:connector-curvature="0"
         style="fill:#231f26;stroke-width:3.39455" />
      <path
         id="path14064"
         d="m 1380.1949,796.3222 c -0.3393,-2.03673 -0.3393,-4.41292 0.6789,-6.44965 1.6973,-2.37618 10.8626,-6.11019 15.2755,-5.09181 0.3394,2.71563 0.3394,5.43127 0,8.14691 -4.4129,1.01837 -15.9544,3.39455 -15.9544,3.39455 z"
         inkscape:connector-curvature="0"
         style="fill:#231f26;stroke-width:3.39455" />
      <path
         id="path14074"
         d="m 1393.773,710.7796 c 0,-7.46801 29.8721,-28.5142 41.0743,-28.5142 h 68.2302 c 17.9912,0 43.1108,23.08292 42.0924,29.872 0,5.4313 -6.4496,259.34347 -6.7891,267.82984 -4.4127,18.33056 -35.982,27.83526 -68.9093,27.83526 -36.3216,0 -67.212,-10.86252 -68.9093,-28.17472 0.3394,-11.202 -6.4497,-261.38018 -6.7892,-268.84818 z"
         inkscape:connector-curvature="0"
         style="fill:#231f26;stroke-width:3.39455" />
      <path
         id="path14082"
         d="m 1400.2229,707.0456 c 2.0366,-5.43128 15.2753,-17.3122 29.8719,-21.72511 -4.413,3.39455 -2.0366,2.71563 -6.4497,5.43128 -8.8258,3.734 -19.6882,15.61492 -19.6882,15.61492 -1.358,0 -2.7158,0.33946 -3.734,0.67891 z"
         inkscape:connector-curvature="0"
         style="fill:#ffffa6;stroke-width:3.39455" />
      <path
         id="path14084"
         d="m 1539.7386,707.0456 c -2.0367,-5.43128 -15.2754,-17.3122 -29.872,-21.72511 4.413,3.39455 2.0367,2.71563 6.4497,5.43128 8.8258,3.734 19.6883,15.61492 19.6883,15.61492 1.3579,0 2.3762,0.33946 3.734,0.67891 z"
         inkscape:connector-curvature="0"
         style="fill:#ffffa6;stroke-width:3.39455" />
      <path
         id="path14086"
         d="m 1420.2506,967.06796 c 17.3121,4.75236 34.9638,7.12854 52.9551,7.468 20.7066,0 33.9453,-3.05509 45.8262,-8.48637 7.468,11.20201 8.4864,20.36729 3.0551,26.81694 -15.615,11.20197 -37.0004,12.55977 -47.8631,12.55977 -10.8626,0.3395 -43.1108,-0.6789 -57.0284,-14.59651 -3.734,-7.12855 -3.734,-13.23873 3.0551,-23.76183 z"
         inkscape:connector-curvature="0"
         style="fill:#5b5a5b;stroke-width:3.39455" />
      <path
         id="path14088"
         d="m 1440.9573,831.61288 h 57.7073 c 2.7156,0 4.7524,1.69727 4.7524,4.41291 v 75.78777 c 0,2.71565 -2.376,4.41292 -4.7524,4.41292 h -57.7073 c -2.7156,0 -4.7522,-1.69727 -4.7522,-4.41292 v -75.78777 c 0,-2.71564 2.0366,-4.41291 4.7522,-4.41291 z"
         inkscape:connector-curvature="0"
         style="fill:#5b5a5b;stroke-width:3.39455"
         sodipodi:nodetypes="sssssssss" />
      <path
         id="path14090"
         d="m 1406.6724,771.88145 c 27.39,-7.78893 42.432,-10.5231 64.4964,-10.18364 22.0646,0.33945 35.6427,3.05509 62.4597,9.50473 -6.1102,16.63329 -13.923,27.50906 -16.6333,41.75294 -12.1437,-0.64717 -23.7618,-2.37618 -43.4503,-2.37618 -16.6332,0 -32.9271,1.35782 -49.2209,3.734 -4.7523,-16.97274 -12.2468,-27.18284 -17.6516,-42.43185 z"
         inkscape:connector-curvature="0"
         style="fill:#5b5a5b;stroke-width:3.39455"
         sodipodi:nodetypes="csccscc" />
      <path
         id="path14092"
         d="m 1539.7386,791.23037 c 0,12.22038 -3.3945,72.98279 -3.3945,72.98279 l -12.5599,4.07345 c 0,0 -1.0183,-41.07403 0.3395,-54.31276 1.3578,-9.50474 7.1286,-17.65165 15.6149,-22.74348 z"
         inkscape:connector-curvature="0"
         style="fill:#5b5a5b;stroke-width:3.39455" />
      <path
         id="path14094"
         d="m 1400.2229,791.23037 c 0,12.22038 3.3944,72.98279 3.3944,72.98279 l 12.56,4.07345 c 0,0 1.0182,-41.07403 -0.3396,-54.31276 -1.6973,-9.50474 -7.4681,-17.65165 -15.6148,-22.74348 z"
         inkscape:connector-curvature="0"
         style="fill:#5b5a5b;stroke-width:3.39455" />
      <path
         id="path14096"
         d="m 1521.7476,876.55931 c 0,0 13.2387,-5.43129 14.257,-4.75239 1.0186,0.67891 1.0186,53.80849 -1.0183,59.23976 -4.413,2.37619 -12.8993,-2.37618 -12.8993,-2.37618 0,-21.0462 0,-31.06501 -0.3394,-52.11119 z"
         inkscape:connector-curvature="0"
         style="fill:#5b5a5b;stroke-width:3.39455"
         sodipodi:nodetypes="csccc" />
      <path
         id="path14098"
         d="m 1416.1773,876.55931 c 0,0 -11.8811,-5.43129 -12.8995,-4.75239 -1.0183,0.67891 -1.0183,53.80849 1.0184,59.23976 4.0734,2.37619 11.5415,-2.37618 11.5415,-2.37618 z"
         inkscape:connector-curvature="0"
         style="fill:#5b5a5b;stroke-width:3.39455"
         sodipodi:nodetypes="csccc" />
      <path
         id="path14100"
         d="m 1521.7476,937.78202 c 4.0734,1.01837 7.8074,2.03673 11.5414,3.734 0.3395,6.11019 0,18.08394 -1.3578,24.19411 -8.147,-4.07345 -10.8625,-21.81792 -10.1836,-27.92811 z"
         inkscape:connector-curvature="0"
         style="fill:#5b5a5b;stroke-width:3.39455"
         sodipodi:nodetypes="cccc" />
      <path
         id="path14102"
         d="m 1416.1773,937.78202 c -4.0736,1.01837 -7.8077,2.03673 -11.5417,3.734 -0.3394,6.11019 0,18.08394 1.3578,24.19411 8.4866,-4.07345 11.2021,-21.81792 10.1839,-27.92811 z"
         inkscape:connector-curvature="0"
         style="fill:#5b5a5b;stroke-width:3.39455"
         sodipodi:nodetypes="cccc" />
      <path
         id="path14076"
         d="m 1406.3329,768.48692 c -1.0183,-9.16528 -5.4313,-44.46858 -4.0734,-54.65223 3.7339,-6.11018 17.6516,-22.06456 31.23,-23.76183 12.8991,-1.35782 57.3676,-1.01836 71.6248,0 14.2571,3.39454 27.4958,13.57817 32.5876,26.13802 -1.0183,19.00945 -3.3945,41.75294 -4.4129,52.61548 -43.4502,-15.27547 -83.8454,-16.29382 -126.9561,-0.33944 z"
         inkscape:connector-curvature="0"
         style="fill:#231f26;fill-opacity:1;stroke-width:3.39455" />
    </g>
    <text
       style="font-style:normal;font-variant:normal;font-weight:bold;font-stretch:normal;font-size:4.9389px;line-height:1.25;font-family:sans-serif;-inkscape-font-specification:'sans-serif, Bold';font-variant-ligatures:normal;font-variant-caps:normal;font-variant-numeric:normal;font-feature-settings:normal;text-align:start;writing-mode:lr-tb;text-anchor:start;fill:#757575;fill-opacity:1;stroke-width:0.011293"
       id="sensor.ascent_tire_pressure_rr"
       y="76.422653"
       x="58.839787"
       xml:space="preserve"><tspan
         id="tspan1268-7-04"
         style="font-style:normal;font-variant:normal;font-weight:bold;font-stretch:normal;font-size:4.9389px;font-family:'Roboto Mono';-inkscape-font-specification:'Roboto Mono Bold';text-align:start;text-anchor:start;fill:#757575;fill-opacity:1;stroke-width:0.011293">00</tspan></text>
    <text
       style="font-style:normal;font-variant:normal;font-weight:bold;font-stretch:normal;font-size:4.9389px;line-height:1.25;font-family:sans-serif;-inkscape-font-specification:'sans-serif, Bold';font-variant-ligatures:normal;font-variant-caps:normal;font-variant-numeric:normal;font-feature-settings:normal;text-align:start;writing-mode:lr-tb;text-anchor:start;fill:#757575;fill-opacity:1;stroke-width:0.011293"
       id="sensor.ascent_tire_pressure_rl"
       y="76.422653"
       x="11.109752"
       xml:space="preserve"><tspan
         id="tspan1268-7-0-0"
         style="font-style:normal;font-variant:normal;font-weight:bold;font-stretch:normal;font-size:4.9389px;font-family:'Roboto Mono';-inkscape-font-specification:'Roboto Mono Bold';text-align:start;text-anchor:start;fill:#757575;fill-opacity:1;stroke-width:0.011293">00</tspan></text>
    <text
       style="font-style:normal;font-variant:normal;font-weight:bold;font-stretch:normal;font-size:4.9389px;line-height:1.25;font-family:sans-serif;-inkscape-font-specification:'sans-serif, Bold';font-variant-ligatures:normal;font-variant-caps:normal;font-variant-numeric:normal;font-feature-settings:normal;text-align:start;writing-mode:lr-tb;text-anchor:start;fill:#757575;fill-opacity:1;stroke-width:0.011293"
       id="sensor.ascent_tire_pressure_fr"
       y="26.782707"
       x="58.839787"
       xml:space="preserve"><tspan
         id="tspan1268-7"
         style="font-style:normal;font-variant:normal;font-weight:bold;font-stretch:normal;font-size:4.9389px;font-family:'Roboto Mono';-inkscape-font-specification:'Roboto Mono Bold';text-align:start;text-anchor:start;fill:#757575;fill-opacity:1;stroke-width:0.011293">00</tspan></text>
    <text
       style="font-style:normal;font-variant:normal;font-weight:bold;font-stretch:normal;font-size:4.9389px;line-height:1.25;font-family:sans-serif;-inkscape-font-specification:'sans-serif, Bold';font-variant-ligatures:normal;font-variant-caps:normal;font-variant-numeric:normal;font-feature-settings:normal;text-align:start;writing-mode:lr-tb;text-anchor:start;fill:#757575;fill-opacity:1;stroke-width:0.011293"
       id="sensor.ascent_tire_pressure_fl"
       y="26.782707"
       x="11.109752"
       xml:space="preserve"><tspan
         id="tspan1268-7-0"
         style="font-style:normal;font-variant:normal;font-weight:bold;font-stretch:normal;font-size:4.9389px;font-family:'Roboto Mono';-inkscape-font-specification:'Roboto Mono Bold';text-align:start;text-anchor:start;fill:#757575;fill-opacity:1;stroke-width:0.011293">00</tspan></text>
    <path
       id="binary_sensor.ascent_rear_right_window"
       d="m 51.837578,56.200579 c 0,0 3.50274,-1.437029 3.77216,-1.257403 0.26951,0.179628 0.26951,14.236829 -0.26942,15.673853 -1.16761,0.6287 -3.41294,-0.628698 -3.41294,-0.628698 0,-5.568473 0,-8.219283 -0.0898,-13.787752 z"
       inkscape:connector-curvature="0"
       style="fill:#ff0000;fill-opacity:1;stroke-width:0.898141"
       sodipodi:nodetypes="csccc" />
    <path
       id="binary_sensor.ascent_rear_left_window"
       d="m 23.905435,56.200579 c 0,0 -3.143541,-1.437029 -3.412993,-1.257403 -0.269425,0.179628 -0.269425,14.236829 0.269452,15.673853 1.077754,0.6287 3.053688,-0.628698 3.053688,-0.628698 z"
       inkscape:connector-curvature="0"
       style="fill:#ff0000;fill-opacity:1;stroke-width:0.898141"
       sodipodi:nodetypes="csccc" />
    <path
       id="binary_sensor.ascent_front_right_window"
       d="m 56.597698,33.623964 c 0,3.233309 -0.89813,19.31003 -0.89813,19.31003 l -3.32314,1.077767 c 0,0 -0.26943,-10.867504 0.0898,-14.370251 0.35925,-2.514796 1.88611,-4.670333 4.13144,-6.017546 z"
       inkscape:connector-curvature="0"
       style="fill:#ff0000;fill-opacity:1;stroke-width:0.898141" />
    <path
       id="binary_sensor.ascent_front_left_window"
       d="m 19.684167,33.623964 c 0,3.233309 0.898101,19.31003 0.898101,19.31003 l 3.323167,1.077767 c 0,0 0.269399,-10.867504 -0.08985,-14.370251 -0.449077,-2.514796 -1.975934,-4.670333 -4.131415,-6.017546 z"
       inkscape:connector-curvature="0"
       style="fill:#ff0000;fill-opacity:1;stroke-width:0.898141" />
    <path
       style="fill:none;stroke:#ff0000;stroke-width:0.8;stroke-linecap:butt;stroke-linejoin:miter;stroke-dasharray:none;stroke-opacity:1"
       d="m 24.642738,79.226657 26.945689,-0.10097 3.078928,6.559105 c -4.821731,6.105234 -27.215629,6.660333 -33.128321,0.31986 z"
       id="binary_sensor.ascent_trunk"
       sodipodi:nodetypes="ccccc" />
    <path
       style="fill:none;stroke:#ff0000;stroke-width:0.8;stroke-linecap:butt;stroke-linejoin:miter;stroke-dasharray:none;stroke-opacity:1"
       d="m 19.552853,53.549997 5.676697,1.746756 0.08078,15.068725 c -1.606277,1.121027 -3.653321,1.661981 -5.30077,1.059044 z"
       id="binary_sensor.ascent_rear_left_door"
       sodipodi:nodetypes="ccccc" />
    <path
       style="fill:none;stroke:#ff0000;stroke-width:0.8;stroke-linecap:butt;stroke-linejoin:miter;stroke-dasharray:none;stroke-opacity:1"
       d="m 51.182847,55.235894 5.519421,-1.868673 -0.548331,18.369084 c -1.344293,0.202924 -2.842933,0.200053 -5.209143,-0.95958 z"
       id="binary_sensor.ascent_rear_right_door"
       sodipodi:nodetypes="ccccc" />
    <path
       style="fill:none;stroke:#ff0000;stroke-width:0.8;stroke-linecap:butt;stroke-linejoin:miter;stroke-dasharray:none;stroke-opacity:1"
       d="M 51.466301,39.488505 51.178868,55.149007 56.675441,53.33386 57.15523,32.154582 c -5.414767,3.495609 -5.688932,7.333923 -5.688932,7.333923 z"
       id="binary_sensor.ascent_front_right_door"
       sodipodi:nodetypes="cccccc" />
    <path
       style="fill:none;stroke:#fe0000;stroke-width:0.8;stroke-linecap:butt;stroke-linejoin:miter;stroke-dasharray:none;stroke-opacity:1"
       d="m 25.014463,40.477328 0.212316,14.762881 -5.679231,-1.6579 -0.541876,-21.375636 c 5.369073,2.901585 6.008791,8.270655 6.008791,8.270655 z"
       id="binary_sensor.ascent_front_left_door"
       sodipodi:nodetypes="ccccc" />
    <path
       style="fill:none;stroke:#ff0000;stroke-width:0.8;stroke-linecap:butt;stroke-linejoin:miter;stroke-dasharray:none;stroke-opacity:1"
       d="m 19.758503,12.000565 -0.100345,16.876579 c 0,0 5.308109,-3.592489 18.031514,-3.592489 12.104718,0 18.930057,2.764277 18.930057,2.764277 l -0.144694,-16.16773 -8.632348,-6.1511694 -19.197476,0.00306 z"
       id="binary_sensor.ascent_hood"
       sodipodi:nodetypes="cccccccc" />
  </g>
</svg>
