<?xml version="1.0" encoding="UTF-8" standalone="no"?>
<svg
   inkscape:version="1.2 (dc2aedaf03, 2022-05-15)"
   height="1600"
   width="1600"
   sodipodi:docname="disney-now.svg"
   xml:space="preserve"
   viewBox="0 0 393.08801 393.08801"
   y="0px"
   x="0px"
   id="layer"
   version="1.1"
   xmlns:inkscape="http://www.inkscape.org/namespaces/inkscape"
   xmlns:sodipodi="http://sodipodi.sourceforge.net/DTD/sodipodi-0.dtd"
   xmlns="http://www.w3.org/2000/svg"
   xmlns:svg="http://www.w3.org/2000/svg"
   xmlns:rdf="http://www.w3.org/1999/02/22-rdf-syntax-ns#"
   xmlns:cc="http://creativecommons.org/ns#"
   xmlns:dc="http://purl.org/dc/elements/1.1/"><metadata
   id="metadata26"><rdf:RDF><cc:Work
       rdf:about=""><dc:format>image/svg+xml</dc:format><dc:type
         rdf:resource="http://purl.org/dc/dcmitype/StillImage" /></cc:Work></rdf:RDF></metadata><defs
   id="defs24">
	
	

		<defs
   id="defs7">
			<filter
   id="Adobe_OpacityMaskFilter"
   filterUnits="userSpaceOnUse"
   x="163.3"
   y="307.10001"
   width="122.1"
   height="119.7">
				<feColorMatrix
   type="matrix"
   values="1 0 0 0 0  0 1 0 0 0  0 0 1 0 0  0 0 0 1 0"
   id="feColorMatrix4" />
			</filter>
		</defs>
		<mask
   maskUnits="userSpaceOnUse"
   x="163.3"
   y="307.1"
   width="122.1"
   height="119.7"
   id="b_1_">
			<g
   class="st0"
   id="g10">
				<path
   id="a_1_"
   class="st1"
   d="M 163.3,426.8 H 285.4 V 307.1 H 163.3 Z" />
			</g>
		</mask>
		
	</defs><sodipodi:namedview
   inkscape:current-layer="g122"
   inkscape:window-maximized="0"
   inkscape:window-y="0"
   inkscape:window-x="1406"
   inkscape:cy="533.94559"
   inkscape:cx="-219.60665"
   inkscape:zoom="0.2322334"
   fit-margin-bottom="0"
   fit-margin-right="0"
   fit-margin-left="0"
   fit-margin-top="0"
   showgrid="false"
   id="namedview22"
   inkscape:window-height="1361"
   inkscape:window-width="2334"
   inkscape:pageshadow="2"
   inkscape:pageopacity="0"
   guidetolerance="10"
   gridtolerance="10"
   objecttolerance="10"
   borderopacity="1"
   bordercolor="#666666"
   pagecolor="#ffffff"
   inkscape:showpageshadow="2"
   inkscape:pagecheckerboard="0"
   inkscape:deskcolor="#d1d1d1" />
<style
   id="style2"
   type="text/css">
	.st0{filter:url(#Adobe_OpacityMaskFilter);}
	.st1{fill:#FFFFFF;}
	.st2{mask:url(#b_1_);fill:#07267C;}
	.st3{fill:#07267C;}
</style>
<g
   id="g122"
   transform="translate(-102.98182,41.434369)"><path
     d="m 390.56849,129.28627 c 0.39402,4.197 -0.85593,12.07467 -0.95602,13.08954 -0.41243,2.38326 -2.29398,7.87324 -2.59363,8.51371 -1.34432,3.0402 -2.85082,5.92646 -4.54864,8.75443 -2.66329,4.62458 -8.98762,12.00175 -12.76525,15.13697 -13.99551,11.62607 -35.27698,18.00097 -53.63732,19.93434 -12.39966,1.24036 -26.67893,0.75819 -39.7805,-1.87411 -3.72248,-0.8204 -7.44498,-1.64081 -11.23398,-2.58603 0,0 0.008,2.72029 -0.25912,4.62524 -0.13749,0.79442 -0.83688,3.09025 -1.16568,3.82639 -0.99462,1.89228 -2.55052,2.88181 -4.87992,3.32208 -2.77033,0.51504 -5.71109,0.56001 -8.20646,-0.51379 -4.12984,-1.88535 -5.55965,-5.77066 -6.18237,-10.2464 -0.56887,-3.62304 -1.07881,-9.84155 -1.07881,-9.84155 0,0 -3.07757,-1.56478 -5.706,-2.88818 -7.76045,-4.03676 -15.12559,-8.68485 -21.99977,-13.91512 -1.87137,-1.4064 -9.63941,-8.16343 -11.32771,-9.82766 -4.83617,-4.71396 -9.16491,-9.37787 -12.35776,-15.36834 -2.55682,-4.64679 -3.1713,-8.8064 -1.17763,-13.63499 2.89263,-6.75002 12.78931,-11.78446 19.48678,-14.55286 5.00852,-2.02846 20.38315,-6.85763 26.78475,-7.62541 3.02817,-0.33195 7.65785,-1.11683 8.03226,-1.31638 0.12479,-0.0665 0.24961,-0.13304 0.27874,-0.2287 0.15395,-0.16218 0.4511,-6.97112 0.48088,-9.47094 6.5e-4,-2.40417 2.14704,-18.37173 2.75523,-21.74072 0.33324,-1.78016 1.85749,-8.8425 3.26389,-10.71388 0.88628,-1.19352 2.5334,-1.10989 3.94738,-0.26098 7.26948,4.61895 9.26179,20.38381 9.62983,28.44075 0.28569,4.89576 0.2546,12.20391 0.2546,12.20391 0,0 8.38132,-0.0602 13.54314,0.15337 4.94136,0.25089 10.53143,1.11756 15.68059,2.05897 6.64232,1.18723 19.53165,4.17301 26.90948,8.0932 6.03034,3.19608 11.73569,8.48843 13.49364,14.04176 1.68322,5.11243 1.36201,8.56885 -1.39693,13.1643 -3.02946,5.14027 -8.6582,8.86147 -14.34837,9.00968 -1.70541,0.10764 -7.99424,-0.86732 -9.93213,-2.39851 -0.74437,-0.64491 -0.73993,-1.68893 -0.095,-2.43331 0.18308,-0.25783 3.14918,-1.7586 4.99206,-2.66071 0.87361,-0.46561 1.65155,-0.96038 2.36299,-1.57996 1.42286,-1.23912 2.77921,-2.60306 2.67153,-4.30847 -0.18244,-2.14632 -2.36994,-3.54448 -4.51182,-4.40606 -10.10634,-4.22872 -30.32029,-7.87782 -40.1156,-8.66659 -3.86819,-0.34212 -9.25048,-0.51825 -9.25048,-0.51825 l 0.26835,54.02303 c 0,0 4.51691,0.95789 8.0107,1.49955 2.00062,0.29586 10.69362,1.2715 12.97298,1.33866 17.54437,0.74509 37.03171,-0.42678 53.16403,-7.74311 7.13014,-3.15927 13.60335,-7.25043 18.61695,-12.72708 6.61133,-7.28975 10.08301,-17.3131 9.42864,-27.86164 -0.77473,-11.52605 -8.69478,-25.3334 -15.1147,-33.77049 C 336.1365,72.5617 307.08771,53.99028 281.39774,42.9234 255.13381,31.68168 229.1765,24.92394 201.20459,23.40654 c -7.19158,-0.41371 -23.00585,-0.31813 -30.95511,1.75531 -1.13145,0.28254 -2.29204,0.66074 -3.39434,0.84761 -0.78619,0.17865 -2.19638,0.68989 -2.50427,1.01424 -0.15394,0.16218 -0.43268,0.39088 -0.43268,0.39088 0,0 0.44915,0.24137 0.99397,0.51187 0.83179,0.35794 4.38387,0.70828 6.16403,1.04152 1.68449,0.3041 3.2898,1.21128 3.95498,2.45929 0.59866,1.12323 0.74816,2.00507 -0.0798,3.00727 -1.80995,2.16659 -8.65627,1.64898 -11.64262,1.15736 -3.08201,-0.52076 -6.93754,-1.59077 -7.57737,-4.29458 -0.81024,-3.17388 0.75454,-6.25146 2.4815,-9.17509 3.42477,-5.75161 8.15899,-8.5954 15.07247,-10.35715 9.8669,-2.5346204 22.1918,-4.2158905 31.42582,-4.3298705 20.93048,-0.41867 40.61609,3.5921705 60.80849,10.0572205 11.51652,3.71749 26.60539,9.77769 37.66388,15.34184 7.88526,3.97023 20.41158,11.236 27.33579,15.95883 2.25402,1.52297 15.06667,11.28032 17.07108,12.93632 4.72405,4.05257 9.19851,8.23819 13.51901,12.58597 7.66794,7.77191 17.11918,19.64135 21.57143,29.04707 1.10167,2.21728 1.88721,4.44281 3.37974,7.09278 0.46563,0.87361 2.50233,6.19825 2.85962,7.77062 0.35729,1.57237 0.8267,3.80612 0.92236,3.83526 -0.071,0.91922 0.83874,5.48238 0.72598,7.22516 m -146.43534,-8.64934 c 0,0 -7.99044,0.49283 -13.45191,0.91979 -6.97556,0.59293 -20.14493,2.64416 -27.82813,5.21681 -2.32118,0.75639 -6.9553,2.58531 -7.36773,4.96856 -0.41242,2.38326 0.96798,4.37184 2.66451,6.35219 1.01044,1.14414 6.37052,6.54038 7.85925,7.83021 6.37498,5.49634 19.27949,13.92269 28.87839,18.10136 3.32718,1.43175 8.6632,3.47546 8.6632,3.47546 0,0 -0.18304,-15.52728 0.1788,-30.78405 0.16859,-8.10257 0.40364,-16.08033 0.40364,-16.08033"
     style="fill:#ffffff;fill-opacity:1"
     id="path49" /><g
     id="g101"
     transform="translate(-16.410835,-4.231605)"><path
       style="fill:#ffffff;fill-opacity:1"
       class="st2"
       d="m 185.1,326.9 c 5.3,-1.6 12.7,-0.1 16.6,3.3 l 36.2,32.4 c 1.3,1.1 1.9,0.8 1.4,-0.8 L 228,326.4 c -0.5,-1.6 -1.4,-4.2 -1.3,-5.9 0.2,-3.8 3,-7.3 7.2,-8.6 l 14.3,-4.4 c 5.3,-1.6 10.8,0.9 12.3,5.7 l 24.5,77.7 c 1.5,4.8 -1.6,10 -6.9,11.6 l -20.8,6.3 c -1.8,0.5 -4.3,0.1 -5.6,-1.1 l -40.2,-35 c -1.3,-1.1 -1.9,-0.8 -1.4,0.8 l 11.6,36.6 c 1.5,4.8 -1.6,10 -6.9,11.6 l -14.3,4.4 c -5.3,1.6 -10.8,-0.9 -12.3,-5.7 l -24.5,-77.7 c -1.5,-4.8 1.6,-10 6.9,-11.6 z"
       mask="url(#b_1_)"
       id="path13"
       transform="rotate(16.942883,592.68487,206.77467)" /><path
       style="fill:#ffffff;fill-opacity:1"
       d="m 292.42229,283.93196 44.70869,-26.31318 c 3.33225,-2.01644 3.34558,-5.1485 -0.0272,-7.11683 l -45.42241,-26.59108 c -3.37279,-1.96832 -6.11842,-0.50493 -6.04875,3.38418 l 0.62624,53.19123 c 0.0697,3.88911 2.83112,5.46211 6.16339,3.44568 m 67.10004,-30.15467 c 0.25835,29.34916 -23.63579,53.22217 -53.33846,53.26827 -29.79831,0.017 -54.11224,-23.80241 -54.37057,-53.15158 -0.25835,-29.34916 23.63581,-53.22216 53.33846,-53.26827 29.70266,-0.0461 54.11225,23.80242 54.37057,53.15158"
       id="path61" /><path
       style="fill:#ffffff;fill-opacity:1"
       id="path17"
       d="m 454.97571,214.27979 -7.83794,36.70922 c -0.70384,3.33984 -1.84352,3.30627 -2.49982,-0.0298 l -8.57369,-42.54517 c -1.0136,-4.90843 -6.05376,-8.95277 -11.20734,-8.85017 l -5.66104,0.0526 c -5.2201,-0.0223 -10.23751,4.09431 -11.31196,8.99386 l -8.85031,42.77759 c -0.70385,3.33984 -1.84353,3.30627 -2.49983,-0.0297 l -8.86066,-42.6326 c -1.0136,-4.90842 -6.05376,-8.95276 -11.30301,-8.8793 l -14.35846,0.12097 c -5.24925,0.0735 -8.52767,2.9426 -7.42222,6.52003 l 26.50621,84.90983 c 1.45451,4.83368 6.96474,8.70761 12.18485,8.7298 l 11.51338,-0.0469 c 3.44818,0.005 6.88878,-2.71011 7.56348,-5.95431 l 8.91682,-42.65278 c 0.70384,-3.33985 1.74787,-3.33542 2.40416,6.6e-4 l 7.9706,42.46598 c 0.6563,3.33605 3.92076,6.00313 7.39808,5.91256 l 12.24127,-0.0341 c 5.24926,-0.0735 10.62015,-3.97774 12.10639,-8.85639 l 25.39075,-83.00336 c 1.48624,-4.87864 -1.52417,-8.72279 -6.74428,-8.74498 l -14.45412,0.0918 c -3.13206,-0.0134 -6.1938,1.4583 -8.34901,3.72879 -2.40481,2.40351 -3.55846,7.90615 -4.2623,11.24601" /></g></g>
</svg>
