<?xml version="1.0" encoding="UTF-8" standalone="no"?>
<svg
   version="1.1"
   width="229"
   height="229"
   viewBox="0,0,229,229"
   id="svg7435"
   sodipodi:docname="pbs-kids.svg"
   inkscape:version="1.2 (dc2aedaf03, 2022-05-15)"
   xmlns:inkscape="http://www.inkscape.org/namespaces/inkscape"
   xmlns:sodipodi="http://sodipodi.sourceforge.net/DTD/sodipodi-0.dtd"
   xmlns="http://www.w3.org/2000/svg"
   xmlns:svg="http://www.w3.org/2000/svg">
  <defs
     id="defs7439" />
  <sodipodi:namedview
     id="namedview7437"
     pagecolor="#ffffff"
     bordercolor="#666666"
     borderopacity="1.0"
     inkscape:showpageshadow="2"
     inkscape:pageopacity="0.0"
     inkscape:pagecheckerboard="0"
     inkscape:deskcolor="#d1d1d1"
     showgrid="false"
     inkscape:zoom="1.0305677"
     inkscape:cx="49.487288"
     inkscape:cy="114.5"
     inkscape:window-width="5120"
     inkscape:window-height="1377"
     inkscape:window-x="-8"
     inkscape:window-y="-8"
     inkscape:window-maximized="1"
     inkscape:current-layer="svg7435" />
  <path
     id="path7415"
     style="display:inline;mix-blend-mode:normal;fill:#ffffff;fill-opacity:1"
     d="M 240 65.5 C 176.76346 65.5 125.5 116.76346 125.5 180 C 125.5 243.23654 176.76346 294.5 240 294.5 C 303.23654 294.5 354.5 243.23654 354.5 180 C 354.5 116.76346 303.23654 65.5 240 65.5 z M 242.16992 107.03711 C 260.71122 107.03711 270.70703 116.34935 270.70703 130.29102 C 270.70703 133.456 269.75593 143.55175 263.20898 147.31836 C 270.95537 150.90188 274.83008 156.39423 274.83008 165.4707 C 274.85508 179.72626 261.98594 189.74414 244.49414 189.74414 C 235.41086 189.56341 226.35801 188.58333 217.43164 186.81445 L 216.38086 185.56055 C 216.35516 185.46655 216.35516 185.3655 216.38086 185.27148 C 218.6548 157.36199 218.78112 129.66174 215.98242 111.875 C 215.97242 111.77063 215.97242 111.66687 215.98242 111.5625 C 215.96712 111.14682 216.14722 110.76509 216.44336 110.52344 C 216.78995 110.24062 217.08614 110.24743 217.52148 110.14453 C 225.61454 108.23174 233.87345 107.19116 242.16992 107.03711 z M 183.72852 114.95703 C 198.43866 115.20922 209.02094 122.77098 212.00781 135.80859 C 215.55615 152.07823 205.23588 167.38159 185.91992 172.08984 L 180.92383 173.13477 L 183.77148 187.12891 L 184.7207 191.07812 C 184.86667 191.71111 185.0957 192.70117 185.0957 192.70117 C 185.1703 193.03429 185.11509 193.38396 184.94141 193.67383 C 184.76776 193.9637 184.49082 194.16939 184.17188 194.24414 L 166.1543 199.97266 C 165.49969 200.11897 164.85425 199.68696 164.70508 199.00391 C 164.66658 198.65331 164.68684 198.45257 164.65234 198.10156 C 163.12446 182.56517 153.76902 138.81284 148.36328 125.71289 C 148.20603 125.41649 148.18936 125.05995 148.31641 124.74805 C 148.52874 124.22662 148.95106 124.14526 149.45898 123.90234 C 156.20003 120.67834 163.24507 118.19969 170.47852 116.50586 C 175.1685 115.3901 179.60967 114.88642 183.72852 114.95703 z M 304.57227 115.31055 C 306.5648 115.27617 308.64149 115.43063 310.78711 115.78906 C 319.33975 117.41367 327.25177 121.58468 333.57617 127.80469 L 333.94141 128.95117 C 333.87601 129.23248 333.722 129.48341 333.50391 129.66211 C 324.27778 139.93842 324.16787 140.26179 323.43164 140.83008 C 323.04091 141.13168 322.76211 141.41406 322.28125 141.30273 C 321.69267 141.11122 321.14696 140.79813 320.67773 140.38086 C 306.89201 130.35706 299.80434 134.24898 299.44141 137.81836 C 299.07848 141.38774 302.18365 145.17111 310.12305 148.36523 C 319.16198 152.06251 331.93153 158.57477 329.85938 174.18164 C 327.9019 189.03496 315.69712 198.42477 299.58203 196.5293 C 289.83256 195.37431 280.85437 190.47807 274.38086 182.78711 C 274.08054 182.49731 273.9513 182.0631 274.04102 181.64453 C 274.13702 181.40202 274.25804 181.16997 274.40234 180.95508 L 284.75 169.76562 C 285.02726 169.43077 285.46368 169.28962 285.87109 169.4043 C 286.11529 169.4367 286.3383 169.56012 286.50195 169.75195 C 290.8502 174.49705 296.52359 177.68393 302.71484 178.85742 C 310.1568 179.61562 314.73465 171.08149 302.82422 166.31641 C 286.05678 159.69801 277.81626 151.74566 279.25195 138.72461 C 280.7376 125.05136 290.62447 115.55121 304.57227 115.31055 z M 241.4082 123.99219 C 237.3636 124.06709 236.62305 124.79688 236.62305 124.79688 L 236.74805 140.7793 C 237.94749 141.04086 253.33938 142.55733 253.18945 132.80078 C 253.11685 127.83676 248.92029 124.31985 242.71094 124.10156 L 241.4082 123.99219 z M 181.54297 132.79102 C 180.25727 132.7735 178.88761 132.92817 177.44922 133.27148 C 175.92493 133.63768 172.27734 134.89453 172.27734 134.89453 L 176.875 155.81836 C 177.65983 155.75986 178.4405 155.65285 179.21289 155.49805 L 180.46875 155.28906 C 189.89387 152.9186 193.61417 147.71505 192.24219 141.40625 C 191.10522 136.17813 187.11431 132.8669 181.54297 132.79102 z M 242.59375 155.87109 C 240.46975 155.87109 236.72266 156.3418 236.72266 156.3418 L 236.72266 172.56055 C 238.81637 173.09482 240.95989 173.37526 243.11328 173.39844 L 244.47266 173.28516 C 253.70694 173.08138 255.16502 168.52957 255.23828 163.90234 C 255.33828 157.96471 248.29108 155.87109 242.59375 155.87109 z M 248.25977 206.32031 C 258.91206 206.29413 274.44931 209.16113 274.69336 226.06055 C 274.79402 233.03117 272.95341 238.39821 269.7168 242.0957 C 264.78214 247.74922 259.82727 248.64483 256.95117 249.2207 C 255.96781 249.41759 254.62389 249.47717 253.62109 249.49023 C 251.93254 249.51223 248.48855 249.54476 246.46094 249.48438 C 243.48538 249.39598 237.35352 248.96289 237.35352 248.96289 L 236.78906 248.55859 L 236.72656 247.76562 C 236.72656 247.76562 237.43665 241.89616 237.66016 228.80078 C 237.88228 214.53063 237.61744 209.34184 237.64844 208.00781 C 237.65544 207.70718 237.86523 207.50586 237.86523 207.50586 L 238.44141 207.14062 C 238.44141 207.14062 242.67998 206.33403 248.25977 206.32031 z M 224.59375 206.95508 L 225.21289 207.18555 L 225.46094 207.69531 C 225.46094 207.69531 225.8713 216.14223 226.38281 226.94531 C 226.6688 238.47237 227.30078 248.31055 227.30078 248.31055 L 227.06836 248.78516 L 226.60156 249.11719 L 217.6582 249.58594 L 216.96875 249.41406 L 216.62109 248.94922 C 216.62109 248.94922 216.31215 239.25423 216.0625 228.53516 C 215.5746 218.03666 214.99414 208.22656 214.99414 208.22656 L 215.12695 207.54492 L 215.74609 207.14062 L 224.59375 206.95508 z M 202.82031 208.91602 L 203.08398 209.1875 L 203.1875 209.66992 C 203.1875 209.66992 199.66824 217.57482 196.76367 222.24609 C 194.93697 225.39596 191.29492 230.67969 191.29492 230.67969 C 191.29492 230.67969 196.78139 234.62206 200.69922 237.875 C 204.61703 241.12793 212.74805 249.22656 212.74805 249.22656 C 212.74805 249.22656 212.91992 249.57562 212.91992 249.73438 C 212.91992 249.84968 212.74805 250.08984 212.74805 250.08984 C 212.74805 250.08984 203.36627 251.36435 201.65234 251.57422 C 201.13544 251.63752 200.89453 251.57227 200.89453 251.57227 C 200.89453 251.57227 200.49663 251.44747 200.29297 251.27539 C 198.93672 250.12941 184.71094 238.10938 184.71094 238.10938 L 182.61133 241.07422 L 185.16016 253.81836 L 185.09961 254.43359 L 184.77539 254.78125 L 175.84375 256.45508 L 175.24609 256.19922 L 174.91992 255.78516 C 174.91992 255.78516 175.37423 255.04018 171.90234 235.80469 C 167.94523 216.36909 167.45508 216.10352 167.45508 216.10352 L 167.52344 215.64844 L 167.9375 215.12695 L 176.34961 213.43359 L 177.08789 213.57617 L 177.58594 214.11328 L 180.67969 229.42383 C 180.67969 229.42383 185.05922 223.16948 187.04297 219.88281 C 188.94662 216.72888 191.74805 210.72266 191.74805 210.72266 L 192.08203 210.21289 L 192.61523 209.93164 L 202.82031 208.91602 z M 298.29688 210.6582 C 306.97801 210.7353 315.0625 217.85352 315.0625 217.85352 C 315.0625 217.85352 315.28241 217.96035 315.29492 218.18555 C 315.30952 218.44853 315.29297 218.5957 315.29297 218.5957 L 310.1875 224.62305 C 310.1875 224.62305 309.94461 224.83991 309.82812 224.85156 C 309.67853 224.86656 309.31445 224.80469 309.31445 224.80469 C 309.31445 224.80469 304.19866 221.00461 299.43555 220.02148 C 296.37411 219.3896 292.73404 220.21056 293.09375 222.99219 C 293.70846 228.47901 311.55707 228.8598 311.45508 241.84961 C 311.39608 249.36656 305.51372 254.72133 296.55078 254.53125 C 283.23772 254.24893 277.69531 246.21289 277.69531 246.21289 C 277.69531 246.21289 277.58093 245.85392 277.52539 245.70117 C 277.47119 245.55208 277.61133 245.16016 277.61133 245.16016 L 282.55273 239.13281 C 282.55273 239.13281 282.83415 239.08203 282.97266 239.08203 C 283.10859 239.08203 283.37695 239.13281 283.37695 239.13281 C 283.37695 239.13281 286.9034 242.37954 291.28711 244.25781 C 293.83815 245.35084 296.26628 245.52688 297.83594 245.35352 C 299.65273 244.75014 301.23951 243.75027 301.22852 241.83594 C 301.19572 236.11993 282.42641 235.1865 282.96484 222.66406 C 283.07328 215.72651 289.28843 210.68397 298.29688 210.6582 z M 251.44336 215.62109 C 248.46483 215.61209 247.41797 215.66602 247.41797 215.66602 L 246.8418 240.04102 C 246.8418 240.04102 248.86702 240.30519 251.53516 240.30273 C 256.56202 240.29773 263.87118 238.71422 264.2168 228.18359 C 264.56242 217.65296 256.3118 215.63639 251.44336 215.62109 z "
     transform="translate(-125.5,-65.5)" />
</svg>
