<?xml version="1.0" encoding="UTF-8" standalone="no"?>
<svg
   viewBox="0 0 282.4 199.8"
   version="1.1"
   id="svg2"
   sodipodi:docname="Unraid_logo.svg"
   width="282.39999"
   height="199.8"
   inkscape:version="1.4.3 (0d15f75042, 2025-12-25)"
   xmlns:inkscape="http://www.inkscape.org/namespaces/inkscape"
   xmlns:sodipodi="http://sodipodi.sourceforge.net/DTD/sodipodi-0.dtd"
   xmlns="http://www.w3.org/2000/svg"
   xmlns:svg="http://www.w3.org/2000/svg">
  <defs
     id="defs2" />
  <sodipodi:namedview
     id="namedview2"
     pagecolor="#ffffff"
     bordercolor="#000000"
     borderopacity="0.25"
     inkscape:showpageshadow="2"
     inkscape:pageopacity="0.0"
     inkscape:pagecheckerboard="0"
     inkscape:deskcolor="#d1d1d1"
     inkscape:zoom="4.5702968"
     inkscape:cx="123.62436"
     inkscape:cy="79.20711"
     inkscape:window-width="2180"
     inkscape:window-height="1347"
     inkscape:window-x="0"
     inkscape:window-y="0"
     inkscape:window-maximized="0"
     inkscape:current-layer="svg2" />
  <linearGradient
     id="SVGID_1_"
     x1="68.07"
     x2="154.073"
     y1="81.488998"
     y2="-4.5139999"
     gradientUnits="userSpaceOnUse"
     gradientTransform="translate(29.999997,30.000002)">
    <stop
       offset="0"
       stop-color="#e32929"
       id="stop1" />
    <stop
       offset="1"
       stop-color="#ff8d30"
       id="stop2" />
  </linearGradient>
  <path
     fill="#ffffff"
     d="M 176.7,160.2 H 165 l -3,9 h -6.5 l 13.4,-38.5 h 8 l 13.4,38.5 h -7.1 l -10.6,-31.6 -5.8,16.9 H 175 Z M 59.699997,130.8 v 25.4 c 0,8.9 -5.8,13.6 -14.9,13.6 -9,0 -14.8,-4.7 -14.8,-13.6 v -25.4 h 6.5 v 25.4 c 0,5.2 3.2,7.9 8.2,7.9 5.2,0 8.4,-2.7 8.4,-7.9 v -25.4 z m 21.2,11.9 v 26.5 h -6.5 v -38.5 h 6.1 l 17,26.5 V 130.7 H 104 v 38.5 H 97.899997 Z M 201.3,130.8 h 6.5 v 38.5 h -6.5 z m 51.1,24.6 c 0,9 -5.9,13.8 -15.2,13.8 h -14.5 v -38.5 h 14.6 c 9.2,0 15.1,4.8 15.1,13.8 z m -6.6,-10.8 c 0,-5.3 -3.3,-8.1 -8.5,-8.1 h -8.1 v 27.1 h 8 c 5.3,0 8.6,-2.8 8.6,-8.1 z m -107.5,10.1 c 4.3,-1.6 6.9,-5.3 6.9,-11.5 0,-8.7 -5.1,-12.4 -12.8,-12.4 h -13.6 v 38.5 h 6.5 v -32.8 h 6.9 c 3.8,0 6.2,1.8 6.2,6.7 0,4.9 -2.4,6.8 -6.2,6.8 h -3.4 l 9.2,19.4 h 7.5 z"
     class="st0"
     id="path1" />
  <path
     fill="url(#SVGID_1_)"
     d="m 137.8,49.200002 h 6.5 v 38.5 h -6.5 z m -56.900003,38.5 h -6.5 v -38.5 h 6.5 z m 25.200003,4.6 h 6.5 V 107 h -6.5 z m -15.900003,-16.5 h 6.5 v 23.8 h -6.5 z m 31.700003,0 h 6.5 v 23.8 h -6.5 z m 79.4,-26.6 h 6.5 v 38.5 h -6.5 z m -25.2,-4.5 h -6.5 v -14.7 h 6.5 z m 15.9,16.4 h -6.5 v -23.7 h 6.5 z m -31.8,0 h -6.5 v -23.7 h 6.5 z"
     id="path2"
     style="fill:url(#SVGID_1_)" />
</svg>
